<svg xmlns="http://www.w3.org/2000/svg" width="364.307" height="50" viewBox="0 0 364.307 50"><defs><style>.a{fill:#323234;}.b{fill:#fff;}</style></defs><path class="a" d="M93.587,26.173,96,36.633c.338,1.431.519,2.635.786,3.767h.079c.189-1.022.488-2.414.786-3.728l2.147-10.5h2.863l-2.973,11.7c-1.132,4.593-2.359,9-4.522,11.742A9.925,9.925,0,0,1,91.9,52.4l-1.054-2.485a8.871,8.871,0,0,0,2.564-2.3,11.121,11.121,0,0,0,1.652-3.044,2.611,2.611,0,0,0,.189-.9A1.974,1.974,0,0,0,95.168,43L90.583,26.173Z" transform="translate(-8.508 -7.458)"/><path class="a" d="M105.132,30.876c0-2.147-.118-3.24-.157-4.719H107.5l.149,2.178h.079a4.624,4.624,0,0,1,4.176-2.485c2.517,0,4.4,1.887,4.4,6.292V44.387h-2.9V32.645c0-2.147-.409-4.325-2.517-4.325-1.2,0-2.359,1.015-2.753,2.973a10.74,10.74,0,0,0-.11,1.612V44.387h-2.894Z" transform="translate(-9.071 -6.677)"/><path class="a" d="M127.562,44.387l-.157-1.919h-.118a4.082,4.082,0,0,1-3.61,2.218c-2.446,0-4.325-2.068-4.325-5.191,0-4.554,3.649-6.59,7.747-6.622v-.566c0-2.446-.6-4.145-2.894-4.145a5.505,5.505,0,0,0-3.012.944l-.637-2.029a7.8,7.8,0,0,1,4.255-1.211c3.649,0,5.23,2.414,5.23,6.512v7.864a28.89,28.89,0,0,0,.189,4.145Zm-.417-9.437c-1.5,0-5,.267-5,4.215,0,2.359,1.2,3.24,2.218,3.24,1.282,0,2.359-.944,2.705-2.745a4.625,4.625,0,0,0,.079-1.022Z" transform="translate(-9.636 -6.688)"/><path class="a" d="M134.066,30.876c0-2.147-.11-3.24-.149-4.719h2.525l.149,2.257h.079a4.561,4.561,0,0,1,4.105-2.548,3.806,3.806,0,0,1,3.806,2.792h.071a5.852,5.852,0,0,1,1.809-2.076,4.412,4.412,0,0,1,2.517-.716c2.446,0,4.365,1.809,4.365,6.441v12.08h-2.855v-11.4c0-2.359-.338-4.664-2.564-4.664-1.2,0-2.257,1.015-2.666,2.705a10.617,10.617,0,0,0-.118,1.659v11.7h-2.855V32.457c0-2.037-.377-4.137-2.525-4.137-1.164,0-2.359,1.015-2.705,2.933a9.942,9.942,0,0,0-.118,1.573V44.387h-2.863Z" transform="translate(-10.334 -6.677)"/><path class="a" d="M156.912,41.375a5.757,5.757,0,0,0,2.933.944,2.462,2.462,0,0,0,2.674-2.635c0-1.392-.488-2.359-2.359-3.578-2.359-1.573-3.649-3.083-3.649-5.191a4.9,4.9,0,0,1,5.01-5.049,6.292,6.292,0,0,1,3.272.944L164.006,29a4.278,4.278,0,0,0-2.414-.786,2.226,2.226,0,0,0-2.359,2.3c0,1.243.448,1.919,2.257,3.146,2.108,1.353,3.759,3.012,3.759,5.505,0,3.657-2.477,5.419-5.45,5.419a6.292,6.292,0,0,1-3.618-1.046Z" transform="translate(-11.065 -6.684)"/><path class="a" d="M179.452,35.28c0,7.078-3.272,9.437-6.056,9.437-3.272,0-5.906-2.973-5.906-9.367,0-6.661,2.973-9.437,6.095-9.437C176.825,25.866,179.452,28.918,179.452,35.28Zm-9.068,0c0,3.012.527,7.078,3.146,7.078,2.485,0,2.973-4.286,2.973-7.078s-.488-7.078-3.044-7.078S170.384,32.5,170.384,35.28Z" transform="translate(-11.561 -6.69)"/><path class="a" d="M183.3,42.387V27.6H181v-2.05h2.3v-1.01a7.164,7.164,0,0,1,1.612-5.088A5.147,5.147,0,0,1,188.567,18a5.381,5.381,0,0,1,2.257.422l-.5,2.122a4.02,4.02,0,0,0-1.573-.283c-2.068,0-2.556,2.057-2.556,4.245v1.047h3.342V27.6h-3.311V42.387Z" transform="translate(-12.057 -5.458)"/><path class="a" d="M195.039,21.352v4.821h3.5v2.218h-3.5v10.8c0,2.359.865,3.012,1.919,3.012a5.631,5.631,0,0,0,1.164-.11l.118,2.218a6.37,6.37,0,0,1-2.147.3,3.7,3.7,0,0,1-2.863-1.085c-.716-.834-1.093-2.068-1.093-4.593V28.391H189.92V26.173h2.218V22.186Z" transform="translate(-12.385 -6.564)"/><path class="a" d="M207.19,19.394a17.742,17.742,0,0,1,4.255-.488,7.9,7.9,0,0,1,5.607,1.77A5.718,5.718,0,0,1,218.7,25a5.851,5.851,0,0,1-3.932,5.647v.079A6.252,6.252,0,0,1,219.49,37.2a7.275,7.275,0,0,1-1.809,5.041c-1.431,1.62-3.8,2.3-6.693,2.3a19.9,19.9,0,0,1-3.806-.267Zm2.9,10.389h1.313a4.357,4.357,0,0,0,4.4-4.475c0-2.359-1.093-4.145-4.176-4.145a5.246,5.246,0,0,0-1.573.189Zm0,12.308a7.016,7.016,0,0,0,1.463.149c3.012,0,4.97-1.77,4.97-5.041a4.907,4.907,0,0,0-5.159-5.2h-1.274Z" transform="translate(-13.145 -6.478)"/><path class="a" d="M230.036,44.387l-.189-1.919h-.11a4.1,4.1,0,0,1-3.618,2.218c-2.446,0-4.325-2.068-4.325-5.191,0-4.554,3.649-6.59,7.754-6.622v-.566c0-2.446-.606-4.145-2.9-4.145a5.505,5.505,0,0,0-3.012.944L223,27.077a7.864,7.864,0,0,1,4.286-1.211c3.649,0,5.23,2.414,5.23,6.512v7.864a28.9,28.9,0,0,0,.189,4.145Zm-.417-9.437c-1.5,0-5,.267-5,4.215,0,2.359,1.2,3.24,2.218,3.24,1.282,0,2.359-.944,2.713-2.745a5.126,5.126,0,0,0,.071-1.022Z" transform="translate(-13.693 -6.688)"/><path class="a" d="M236.509,30.876c0-1.573-.11-3.35-.149-4.719h2.6l.149,2.855h.079a4.409,4.409,0,0,1,3.838-3.146h.6v2.973a3.61,3.61,0,0,0-.6,0c-1.848,0-3.2,1.691-3.5,3.8a10.589,10.589,0,0,0-.118,1.652v10.1h-2.894Z" transform="translate(-14.18 -6.677)"/><path class="a" d="M254.235,43.931a6.244,6.244,0,0,1-3.012.676c-3.987,0-6.661-3.193-6.661-9.217,0-5.23,2.635-9.485,7.188-9.485a5.883,5.883,0,0,1,2.556.566l-.558,2.359a4.719,4.719,0,0,0-2.076-.5c-2.894,0-4.215,3.468-4.215,7.078,0,4.255,1.62,6.811,4.294,6.811a4.994,4.994,0,0,0,2.108-.488Z" transform="translate(-14.565 -6.686)"/><path class="a" d="M267.668,35.28c0,7.078-3.272,9.437-6.056,9.437-3.28,0-5.914-2.973-5.914-9.367,0-6.661,2.973-9.437,6.1-9.437S267.668,28.918,267.668,35.28Zm-9.068,0c0,3.012.527,7.078,3.146,7.078,2.485,0,2.973-4.286,2.973-7.078s-.488-7.078-3.051-7.078S258.6,32.5,258.6,35.28Z" transform="translate(-15.064 -6.69)"/><path class="a" d="M281.855,18.34V38.376c0,1.148.118,3.06.149,4.033H279.52l-.181-2.122h-.149a4.2,4.2,0,0,1-3.8,2.4c-3.083,0-5.309-3.1-5.309-8.626,0-5.981,2.674-8.765,5.505-8.765a3.557,3.557,0,0,1,3.311,2.02h.071V18.34Zm-2.863,13.634V30.862c-.189-1.737-1.321-3.27-2.713-3.27-2.407,0-3.232,3.1-3.232,6.468,0,3.547.975,6.4,3.083,6.4.9,0,2.147-.451,2.784-2.907a4.712,4.712,0,0,0,.11-1.112Z" transform="translate(-15.634 -5.458)"/><path class="a" d="M287.95,35.54c.039,5.568,2.226,6.779,4.333,6.779a6.127,6.127,0,0,0,3-.716l.456,2.139a8.769,8.769,0,0,1-3.987.865c-4.365,0-6.63-3.57-6.63-9.139,0-5.914,2.485-9.6,6.134-9.6s5.2,3.932,5.2,8.061V35.5Zm5.725-2.139c.071-3.657-1.321-5.269-2.713-5.269-1.88,0-2.863,2.784-2.973,5.269Z" transform="translate(-16.214 -6.685)"/><path class="a" d="M305.716,19.394a16.515,16.515,0,0,1,4.145-.519c2.524,0,4.4.527,5.725,1.809a6.865,6.865,0,0,1,1.762,4.97,6.606,6.606,0,0,1-4.058,6.5v.087c1.88.566,2.855,2.359,3.421,5.686a36.033,36.033,0,0,0,1.431,6.433h-2.933a33.159,33.159,0,0,1-1.361-6.292c-.558-3.468-1.652-4.782-4.137-4.782h-1.133v11.1h-2.894ZM308.61,31.1h1.25c2.784,0,4.624-2.037,4.624-5.08s-1.2-4.719-4.325-4.782a5.969,5.969,0,0,0-1.51.149Z" transform="translate(-17.065 -6.471)"/><path class="a" d="M322.916,35.54c0,5.568,2.218,6.779,4.325,6.779a6.181,6.181,0,0,0,3.012-.716l.448,2.139a8.745,8.745,0,0,1-3.987.865c-4.365,0-6.622-3.57-6.622-9.139,0-5.914,2.485-9.6,6.134-9.6s5.191,3.932,5.191,8.061V35.5Zm5.717-2.139c.079-3.657-1.313-5.269-2.705-5.269-1.88,0-2.863,2.784-2.973,5.269Z" transform="translate(-19.684 -6.685)"/><path class="a" d="M341.736,44.387l-.189-1.919h-.118a4.082,4.082,0,0,1-3.61,2.218c-2.446,0-4.325-2.068-4.325-5.191,0-4.554,3.649-6.59,7.747-6.622v-.566c0-2.446-.6-4.145-2.894-4.145a5.505,5.505,0,0,0-3.012.944l-.637-2.029a7.794,7.794,0,0,1,4.247-1.211c3.657,0,5.238,2.414,5.238,6.512v7.864a30.133,30.133,0,0,0,.181,4.145Zm-.417-9.437c-1.51,0-5.01.267-5.01,4.215,0,2.359,1.211,3.24,2.226,3.24,1.274,0,2.359-.944,2.705-2.745a4.62,4.62,0,0,0,.079-1.022Z" transform="translate(-19.684 -6.688)"/><path class="a" d="M359.195,18.34V38.376c0,1.148.11,3.06.149,4.033h-2.485l-.189-2.122h-.11a4.209,4.209,0,0,1-3.8,2.4c-3.091,0-5.309-3.1-5.309-8.626,0-5.981,2.674-8.765,5.505-8.765a3.556,3.556,0,0,1,3.3,2.02h.071V18.34Zm-2.863,13.634V30.862c-.181-1.737-1.313-3.27-2.705-3.27-2.407,0-3.24,3.1-3.24,6.468,0,3.547.983,6.4,3.091,6.4.9,0,2.147-.451,2.784-2.907a5.163,5.163,0,0,0,.11-1.112Z" transform="translate(-19.684 -5.458)"/><path class="a" d="M365.29,35.54c0,5.568,2.218,6.779,4.325,6.779a6.181,6.181,0,0,0,3.012-.716l.456,2.139a8.8,8.8,0,0,1-4,.865c-4.365,0-6.622-3.57-6.622-9.139,0-5.914,2.485-9.6,6.134-9.6s5.2,3.932,5.2,8.061c0,.676,0,1.164-.039,1.573Zm5.717-2.139c.079-3.657-1.313-5.269-2.705-5.269-1.88,0-2.863,2.784-2.973,5.269Z" transform="translate(-19.684 -6.685)"/><path class="a" d="M376.882,30.876c0-1.573-.11-3.35-.149-4.719h2.6l.149,2.855h.079a4.417,4.417,0,0,1,3.838-3.146h.6v2.973a3.515,3.515,0,0,0-.6,0c-1.848,0-3.2,1.691-3.5,3.8a10.627,10.627,0,0,0-.11,1.652v10.1h-2.9Z" transform="translate(-19.684 -6.677)"/><path class="a" d="M73.242,42.586V17.845h6.976c5.025,0,7.471,2.314,7.471,7.073V35.535c0,4.766-2.446,7.08-7.471,7.08ZM75.9,40.148h4.318c2.926,0,4.813-1.652,4.813-4.2v-11.5c0-2.547-1.887-4.192-4.813-4.192H75.9Z" transform="translate(-7.836 -5.458)"/><rect class="a" width="52" height="50" rx="5.112"/><path class="b" d="M21.3,20.448h-5.78V42.256H21.3c3.932,0,6.166-1.84,6.166-6.292V26.739C27.471,22.312,25.221,20.448,21.3,20.448ZM24.97,36.334c0,2.289-1.644,3.437-3.665,3.437H18.025V22.949H21.3c2.021,0,3.665,1.148,3.665,3.445Z" transform="translate(-5.112 -6.451)"/><path class="b" d="M35.3,28.312a3.319,3.319,0,0,0-2.989,1.714v-5.8a3.861,3.861,0,0,1-1.518-.488,4.05,4.05,0,0,1-1.156-.928h0V24.38h0V42.224h2.674V40.541c.645,1.266,1.219,1.927,2.477,1.927,2.359,0,4.325-2.469,4.325-7.338C39.11,31.073,37.75,28.312,35.3,28.312ZM34.085,39.983c-.5,0-1.211-.315-1.573-1.746a7.2,7.2,0,0,1-.2-1.274V33.951a8.7,8.7,0,0,1,.181-1.306c.165-.9.786-1.77,1.573-1.77,1.431,0,2.359,2.092,2.359,4.624C36.468,38.253,35.547,39.983,34.085,39.983Z" transform="translate(-5.112 -6.531)"/><path class="b" d="M46.078,28.438a3.445,3.445,0,0,0-2.957,2.3h0V28.666h0a4.333,4.333,0,0,1-.967.676,4.176,4.176,0,0,1-1.573.48V42.256h2.556V35.083a6.1,6.1,0,0,1,.11-1.313,3.146,3.146,0,0,1,2.878-2.359,2.045,2.045,0,0,1,.621.055V28.477a3.759,3.759,0,0,0-.668-.039Z" transform="translate(-5.112 -6.662)"/></svg>