<svg xmlns="http://www.w3.org/2000/svg" width="294.691" height="50" viewBox="0 0 294.691 50"><defs><style>.a{fill:#323234;}.b{fill:#6ac4bb;}.c{fill:#fff;}</style></defs><path class="a" d="M93.587,26.291,96,36.759c.338,1.423.519,2.635.786,3.759h.079c.189-1.015.488-2.407.786-3.728l2.147-10.5h2.863L99.69,38c-1.132,4.585-2.359,8.989-4.522,11.734A10.082,10.082,0,0,1,91.9,52.527l-1.054-2.485a8.989,8.989,0,0,0,2.564-2.3,11.27,11.27,0,0,0,1.652-3.051,2.548,2.548,0,0,0,.189-.9,2.013,2.013,0,0,0-.079-.676L90.583,26.291Z" transform="translate(-8.534 -7.458)"/><path class="a" d="M105.132,30.994c0-2.139-.118-3.232-.157-4.719H107.5l.149,2.186h.079a4.616,4.616,0,0,1,4.176-2.485c2.517,0,4.4,1.88,4.4,6.292V44.505h-2.9V32.763c0-2.139-.409-4.325-2.517-4.325-1.2,0-2.359,1.015-2.753,2.973a10.851,10.851,0,0,0-.11,1.62V44.505h-2.894Z" transform="translate(-9.1 -6.684)"/><path class="a" d="M127.562,44.505l-.157-1.919h-.118a4.09,4.09,0,0,1-3.641,2.241c-2.446,0-4.325-2.076-4.325-5.2,0-4.554,3.649-6.583,7.747-6.622v-.566c0-2.446-.6-4.137-2.894-4.137a5.505,5.505,0,0,0-3.012.944l-.637-2.037a7.809,7.809,0,0,1,4.255-1.2c3.649,0,5.23,2.407,5.23,6.512v7.864a28.722,28.722,0,0,0,.189,4.137Zm-.417-9.437c-1.5,0-5,.267-5,4.215,0,2.359,1.2,3.24,2.218,3.24,1.282,0,2.359-.944,2.705-2.753a4.585,4.585,0,0,0,.079-1.015Z" transform="translate(-9.666 -6.697)"/><path class="a" d="M134.066,30.994c0-2.139-.11-3.232-.149-4.719h2.525l.149,2.257h.079a4.569,4.569,0,0,1,4.105-2.54,3.8,3.8,0,0,1,3.806,2.784h.071a5.749,5.749,0,0,1,1.809-2.068,4.412,4.412,0,0,1,2.517-.716c2.446,0,4.365,1.809,4.365,6.433v12.08h-2.855V33.1c0-2.359-.338-4.664-2.564-4.664-1.2,0-2.257,1.015-2.666,2.713a10.585,10.585,0,0,0-.118,1.652v11.7h-2.855V32.575c0-2.029-.377-4.137-2.525-4.137-1.164,0-2.359,1.015-2.705,2.933a10.091,10.091,0,0,0-.118,1.573V44.505h-2.863Z" transform="translate(-10.401 -6.684)"/><path class="a" d="M160.53,21.588a1.722,1.722,0,1,1-3.429,0,1.738,1.738,0,0,1,1.691-1.88,1.707,1.707,0,0,1,1.738,1.88Zm-3.146,22.917V26.291h2.9V44.505Z" transform="translate(-11.024 -6.506)"/><path class="a" d="M173.207,44.041a6.221,6.221,0,0,1-3.012.676c-3.987,0-6.661-3.2-6.661-9.217,0-5.23,2.635-9.485,7.188-9.485a5.78,5.78,0,0,1,2.564.566l-.566,2.359a4.719,4.719,0,0,0-2.068-.488c-2.9,0-4.215,3.46-4.215,7.039,0,4.247,1.62,6.811,4.286,6.811a4.97,4.97,0,0,0,2.108-.488Z" transform="translate(-11.405 -6.693)"/><path class="a" d="M181.41,42.626a2.013,2.013,0,0,1,1.919-2.178,1.932,1.932,0,0,1,1.919,2.178c0,1.313-.708,2.186-1.919,2.186a1.982,1.982,0,0,1-1.919-2.186Z" transform="translate(-11.978 -6.927)"/><path class="a" d="M189.125,44.505V19.142h2.768l4.664,11.891c1.054,2.713,2.359,6.095,3.232,8.848h.079c-.228-3.987-.338-7.267-.338-11.671V19.142h2.587V44.505h-2.753l-4.821-12.19a89.287,89.287,0,0,1-3-8.651h-.079c.228,3.39.3,6.622.3,12.041v8.8Z" transform="translate(-12.503 -6.485)"/><path class="a" d="M215.888,32.465h-6.362v9.524h7.227v2.517H206.624V19.142h9.65v2.524H209.5v8.352h6.362Z" transform="translate(-13.127 -6.485)"/><path class="a" d="M222.919,21.737h-4.624v-2.6H230.43v2.6H225.8V44.544h-2.9Z" transform="translate(-13.649 -6.487)"/><path class="a" d="M240.834,21.737H236.21v-2.6h12.151v2.6h-4.624V44.544h-2.9Z" transform="translate(-14.367 -6.487)"/><path class="a" d="M255.1,44.505l-4.892-25.363h3.028l2.139,12.229c.527,3.2.944,6.024,1.243,9.146h.149c.307-3.2.9-5.946,1.51-9.178l2.359-12.2h2.485l2.359,11.93c.566,3.012,1.125,5.906,1.471,9.437h.11c.417-3.649.865-6.394,1.353-9.3l2.108-12.08h2.823L268.415,44.5h-2.823l-2.517-12.332c-.488-2.674-.975-5.505-1.274-8.321h-.079c-.378,2.863-.786,5.607-1.392,8.431l-2.525,12.229Z" transform="translate(-16.9 -6.485)"/><path class="a" d="M277.789,36.908l-1.691,7.6h-2.784l5.8-25.363h3.224l5.639,25.363h-2.855l-1.7-7.6Zm5.238-2.359-1.321-6.433c-.378-1.809-.716-3.932-1.015-5.8h-.149c-.307,1.919-.676,4.1-1.015,5.8L278.206,34.6Z" transform="translate(-16.9 -6.485)"/><path class="a" d="M294.014,19.142V44.505h-2.9V19.142Z" transform="translate(-16.9 -6.485)"/><path class="a" d="M298.607,44.505V19.142h2.745l4.664,11.891c1.054,2.713,2.359,6.095,3.24,8.848h.079c-.228-3.987-.346-7.267-.346-11.671V19.142h2.6V44.505h-2.753l-4.813-12.19a89.094,89.094,0,0,1-3.012-8.651h-.079c.228,3.39.307,6.622.307,12.041v8.8Z" transform="translate(-16.9 -6.485)"/><path class="a" d="M73.242,42.7V17.962h6.976c5.025,0,7.471,2.314,7.471,7.08V35.629c0,4.759-2.446,7.073-7.471,7.073ZM75.9,40.264h4.318c2.926,0,4.813-1.644,4.813-4.2V24.577c0-2.547-1.887-4.2-4.813-4.2H75.9Z" transform="translate(-7.862 -5.458)"/><rect class="b" width="52" height="50" rx="5.104"/><path class="c" d="M46.6,40a1.07,1.07,0,0,1-1.14-1.117V30.8h2.029V28.54H45.465V25.394a4.152,4.152,0,0,1-.944.668,4.373,4.373,0,0,1-1.793.448v2.005H40.9v2.257H42.72v8.549c0,2.013,1.3,3.146,3.421,3.146a4.459,4.459,0,0,0,1.361-.149V39.959Z" transform="translate(-5.112 -6.6)"/><path class="c" d="M28.6,27.211h2.729V29l.228-.448a4.373,4.373,0,0,1,3.877-1.817c2.619,0,3.932,2,3.932,5.505v10H36.578V32.8c0-1.494-.519-3.366-2.509-3.366-3.036,0-2.721,3.358-2.737,3.366V42.24H28.6Z" transform="translate(-5.112 -6.624)"/><path class="c" d="M20.495,20.448H14.707V42.24h5.788c3.932,0,6.166-1.84,6.166-6.292V26.739C26.661,22.3,24.38,20.448,20.495,20.448Zm3.657,15.871c0,2.289-1.644,3.437-3.657,3.437H17.215V22.933h3.279a3.328,3.328,0,0,1,3.657,3.445Z" transform="translate(-5.112 -6.45)"/></svg>