<svg xmlns="http://www.w3.org/2000/svg" width="293.527" height="50" viewBox="0 0 293.527 50"><defs><style>.a{fill:#323234;}.b{fill:#f78e1f;}.c{fill:#fff;}</style></defs><path class="a" d="M93.265,26.433l2.414,10.46c.338,1.431.527,2.635.786,3.759h.079c.189-1.015.488-2.407.786-3.72l2.147-10.5h2.863l-3.012,11.7c-1.132,4.593-2.359,8.989-4.514,11.742a10.027,10.027,0,0,1-3.279,2.815l-1.054-2.485a8.769,8.769,0,0,0,2.564-2.3A11.238,11.238,0,0,0,94.7,44.867a2.611,2.611,0,0,0,.189-.9,2.179,2.179,0,0,0-.071-.676L90.221,26.464Z" transform="translate(-8.521 -7.961)"/><path class="a" d="M104.786,31.136c0-2.147-.118-3.24-.149-4.719h2.517L107.3,28.6h.079a4.616,4.616,0,0,1,4.176-2.485c2.525,0,4.4,1.887,4.4,6.292V44.647h-2.9V32.905c0-2.147-.409-4.333-2.517-4.333-1.2,0-2.359,1.022-2.753,2.973a10.929,10.929,0,0,0-.11,1.62V44.647h-2.894Z" transform="translate(-9.087 -7.165)"/><path class="a" d="M127.216,44.647l-.189-1.919h-.118a4.082,4.082,0,0,1-3.61,2.218c-2.446,0-4.325-2.068-4.325-5.191,0-4.554,3.649-6.59,7.754-6.63v-.558c0-2.446-.606-4.145-2.9-4.145a5.505,5.505,0,0,0-3.012.944l-.637-2.037a7.864,7.864,0,0,1,4.255-1.2c3.649,0,5.23,2.414,5.23,6.512V40.5a28.893,28.893,0,0,0,.189,4.145Zm-.417-9.437c-1.5,0-5,.267-5,4.215,0,2.359,1.2,3.24,2.218,3.24,1.282,0,2.359-.944,2.713-2.753A5.049,5.049,0,0,0,126.8,38.9Z" transform="translate(-9.653 -7.177)"/><path class="a" d="M133.7,31.136c0-2.147-.118-3.24-.157-4.719h2.525l.149,2.257h.079a4.561,4.561,0,0,1,4.1-2.564,3.806,3.806,0,0,1,3.806,2.784h.071a5.891,5.891,0,0,1,1.809-2.068,4.42,4.42,0,0,1,2.525-.716c2.446,0,4.365,1.809,4.365,6.441v12.1h-2.831v-11.4c0-2.359-.338-4.672-2.556-4.672-1.211,0-2.265,1.022-2.674,2.713a10.584,10.584,0,0,0-.118,1.652v11.71H141.93V32.716c0-2.037-.377-4.145-2.525-4.145-1.164,0-2.359,1.022-2.705,2.941a9.938,9.938,0,0,0-.118,1.573V44.647H133.7Z" transform="translate(-10.387 -7.165)"/><path class="a" d="M160.184,21.722a1.722,1.722,0,1,1-3.429,0,1.738,1.738,0,0,1,1.7-1.88,1.7,1.7,0,0,1,1.73,1.88Zm-3.146,22.925V26.433h2.9V44.647Z" transform="translate(-11.011 -6.982)"/><path class="a" d="M172.861,44.191a6.221,6.221,0,0,1-3.012.676c-3.987,0-6.661-3.193-6.661-9.217,0-5.23,2.635-9.485,7.188-9.485a5.9,5.9,0,0,1,2.564.566l-.566,2.359a4.719,4.719,0,0,0-2.068-.488c-2.9,0-4.215,3.46-4.215,7.039,0,4.255,1.62,6.811,4.286,6.811a4.97,4.97,0,0,0,2.108-.488Z" transform="translate(-11.392 -7.175)"/><path class="a" d="M183.549,44.647l-4.892-25.371h3.012l2.147,12.237c.527,3.193.936,6.016,1.243,9.139h.149c.3-3.193.9-5.946,1.5-9.178l2.359-12.2h2.485l2.359,11.93c.558,3.012,1.125,5.914,1.463,9.437h.11c.417-3.649.865-6.394,1.361-9.3l2.108-12.08h2.823l-4.931,25.371h-2.823l-2.446-12.347c-.488-2.674-.983-5.505-1.282-8.313h-.071c-.377,2.855-.786,5.607-1.4,8.423L186.31,44.639Z" transform="translate(-12.334 -6.961)"/><path class="a" d="M205.192,35.8c0,5.568,2.218,6.771,4.325,6.771a6.1,6.1,0,0,0,3.012-.716L212.978,44a8.745,8.745,0,0,1-3.987.865c-4.365,0-6.622-3.57-6.622-9.139,0-5.914,2.485-9.6,6.134-9.6s5.191,3.932,5.191,8.053V35.8Zm5.717-2.147c.079-3.649-1.313-5.269-2.705-5.269-1.88,0-2.863,2.792-2.973,5.269Z" transform="translate(-12.991 -7.174)"/><path class="a" d="M216.635,42.669c0-.974.149-2.907.149-4.033V18.6h2.894v9.215h.079a4.107,4.107,0,0,1,3.838-2.26c2.823,0,4.97,3.031,4.97,8.525,0,6.083-2.713,8.866-5.505,8.866a3.783,3.783,0,0,1-3.61-2.471h-.118l-.189,2.18Zm3.044-5.952a2.866,2.866,0,0,0,.118,1.047c.676,2.5,1.919,2.958,2.705,2.958,2.359,0,3.146-2.907,3.146-6.541,0-3.372-.865-6.366-3.2-6.366-1.353,0-2.477,1.563-2.705,2.994a5.93,5.93,0,0,0-.079,1.177Z" transform="translate(-13.578 -5.961)"/><path class="a" d="M239.623,21.879H235v-2.6h12.151v2.6h-4.624V44.686h-2.9Z" transform="translate(-14.32 -6.963)"/><path class="a" d="M253.889,44.647,249,19.276h3.012l2.147,12.237c.527,3.193.936,6.016,1.235,9.139h.157c.3-3.193.9-5.946,1.5-9.178l2.359-12.2h2.477l2.359,11.93c.566,3.012,1.133,5.914,1.471,9.437h.1c.417-3.649.865-6.394,1.353-9.3l2.108-12.08H272.1l-4.931,25.371h-2.815L261.887,32.3c-.488-2.674-.975-5.505-1.274-8.313h-.079c-.378,2.855-.786,5.607-1.392,8.423l-2.517,12.237Z" transform="translate(-16.853 -6.961)"/><path class="a" d="M276.586,37.042l-1.7,7.6h-2.776l5.8-25.371h3.2l5.647,25.371h-2.847l-1.691-7.6Zm5.23-2.359-1.321-6.37c-.378-1.809-.716-3.932-1.015-5.8h-.149c-.3,1.919-.676,4.105-1.015,5.8L277,34.745Z" transform="translate(-16.853 -6.961)"/><path class="a" d="M292.8,19.276V44.647h-2.894V19.276Z" transform="translate(-16.853 -6.961)"/><path class="a" d="M297.4,44.647V19.276h2.745l4.672,11.9c1.054,2.705,2.359,6.095,3.232,8.84h.079c-.228-3.987-.338-7.267-.338-11.663V19.276h2.6V44.647h-2.753l-4.845-12.2a89.094,89.094,0,0,1-3.012-8.651H299.7c.22,3.39.3,6.63.3,12.048v8.8Z" transform="translate(-16.853 -6.961)"/><path class="a" d="M72.9,42.828V18.088H79.88c5.025,0,7.471,2.314,7.471,7.073v10.6c0,4.759-2.446,7.073-7.471,7.073Zm2.666-2.438h4.325c2.926,0,4.813-1.644,4.813-4.191V24.71c0-2.547-1.887-4.191-4.813-4.191H75.562Z" transform="translate(-7.849 -5.961)"/><rect class="b" width="52" height="50" rx="5.136"/><path class="c" d="M28.485,29.169s2.013,9.139,2.186,10.491h.11c.2-1.353.519-2.91.786-4.215l1.455-6.292h2.265l1.384,6.111c.315,1.573.606,2.941.786,4.381h.087c.118-1.384,2.265-10.491,2.265-10.491h2.721L38.7,42.861h-2.58l-1.29-5.631c-.315-1.329-.786-4.184-.786-4.184h0a36.366,36.366,0,0,1-.786,4.208l-1.447,5.607H29.2L25.764,29.169Z" transform="translate(-5.112 -7.173)"/><path class="c" d="M48.665,40.636a1.085,1.085,0,0,1-1.14-1.125V31.458h2.021V29.177H47.525V26.031a4.2,4.2,0,0,1-.936.676,4.538,4.538,0,0,1-1.793.448v2.021H42.972v2.281h1.856v8.5c0,2.013,1.3,3.146,3.413,3.146a4.813,4.813,0,0,0,1.306-.149v-2.32Z" transform="translate(-5.112 -7.111)"/><path class="c" d="M18.875,21.061H13.063v21.8h5.812c3.932,0,6.166-1.848,6.166-6.292V27.376C25.009,22.909,22.76,21.061,18.875,21.061Zm3.633,15.9c0,2.3-1.644,3.445-3.665,3.445H15.564V23.546h3.311c2.021,0,3.665,1.148,3.665,3.445Z" transform="translate(-5.112 -6.961)"/></svg>