<svg xmlns="http://www.w3.org/2000/svg" width="37.69" height="35.973" viewBox="0 0 37.69 35.973"><defs><style>.a{fill:none;}.a,.b{stroke:#000;stroke-linecap:round;stroke-linejoin:round;stroke-width:1.5px;}.b{fill:rgba(0,0,0,0);}</style></defs><g transform="translate(0.75 0.75)"><line class="a" x2="36" transform="translate(0 6.921)"/><line class="a" transform="translate(5.17 3.023)"/><path class="b" d="M4.681,3.757a.427.427,0,1,0,0-.007" transform="translate(0.489 -0.734)"/><line class="a" transform="translate(8.617 3.023)"/><path class="b" d="M6.681,3.757a.427.427,0,1,0,0-.007" transform="translate(1.936 -0.734)"/><line class="a" transform="translate(12.063 3.023)"/><path class="b" d="M8.681,3.757a.427.427,0,1,0,0-.007" transform="translate(3.382 -0.734)"/><path class="b" d="M10.117,27.85H4.991A3.488,3.488,0,0,1,1.5,24.4V5.447A3.486,3.486,0,0,1,4.991,2h29.3a3.407,3.407,0,0,1,3.4,3.447V24.4a3.407,3.407,0,0,1-3.4,3.447H29.073" transform="translate(-1.5 -2)"/><path class="b" d="M22.286,17.4,15.393,10.5,8.5,17.4" transform="translate(3.563 4.151)"/><line class="a" y1="19.818" transform="translate(18.956 14.655)"/></g></svg>