<svg xmlns="http://www.w3.org/2000/svg" width="43.299" height="52.984" viewBox="0 0 43.299 52.984"><defs><style>.a{fill:#fff;}</style></defs><path class="a" d="M30.11,79.234c-4.479,7.773-1.632,19.569,3.322,26.721,2.473,3.576,4.976,6.786,8.4,6.786.065,0,.129,0,.2,0a10.379,10.379,0,0,0,3.9-1.04,10.681,10.681,0,0,1,4.62-1.1,10.045,10.045,0,0,1,4.4,1.06,9.318,9.318,0,0,0,4.213,1.01c3.862-.072,6.233-3.535,8.325-6.591a29.215,29.215,0,0,0,3.648-7.472l.015-.047a.434.434,0,0,0-.231-.533l-.032-.014a11.07,11.07,0,0,1-6.709-10.138,11.4,11.4,0,0,1,5.385-9.527l.042-.026a.434.434,0,0,0,.123-.61,12.532,12.532,0,0,0-9.857-5.353c-.28-.028-.569-.042-.86-.042a17.182,17.182,0,0,0-6.186,1.545,9.943,9.943,0,0,1-2.963.885,9.7,9.7,0,0,1-3.065-.9,14.853,14.853,0,0,0-5.4-1.372H41.26A13.248,13.248,0,0,0,30.11,79.234Z" transform="translate(-27.875 -59.757)"/><path class="a" d="M160.135,0a12.1,12.1,0,0,0-7.986,4.1,11.335,11.335,0,0,0-2.869,8.4.434.434,0,0,0,.4.376c.185.014.373.022.561.022a10.233,10.233,0,0,0,7.538-3.866A11.95,11.95,0,0,0,160.585.387.437.437,0,0,0,160.135,0Z" transform="translate(-128.132 0)"/></svg>