<svg xmlns="http://www.w3.org/2000/svg" width="29.036" height="35.531" viewBox="0 0 29.036 35.531"><defs><style>.a{fill:#999;}</style></defs><path class="a" d="M29.374,76.956c-3,5.213-1.094,13.123,2.227,17.919,1.658,2.4,3.337,4.55,5.636,4.55l.131,0a6.96,6.96,0,0,0,2.616-.7,7.163,7.163,0,0,1,3.1-.734,6.736,6.736,0,0,1,2.949.711,6.249,6.249,0,0,0,2.825.677c2.59-.048,4.18-2.371,5.583-4.42a19.592,19.592,0,0,0,2.446-5.01l.01-.032a.291.291,0,0,0-.155-.357l-.021-.009a7.423,7.423,0,0,1-4.5-6.8,7.642,7.642,0,0,1,3.611-6.388l.028-.018a.291.291,0,0,0,.083-.409,8.4,8.4,0,0,0-6.61-3.59c-.188-.019-.382-.028-.577-.028a11.522,11.522,0,0,0-4.148,1.036,6.668,6.668,0,0,1-1.987.594,6.5,6.5,0,0,1-2.056-.6,9.961,9.961,0,0,0-3.623-.92h-.092A8.884,8.884,0,0,0,29.374,76.956Z" transform="translate(-27.875 -63.895)"/><path class="a" d="M156.536,0a8.112,8.112,0,0,0-5.356,2.747,7.6,7.6,0,0,0-1.924,5.636.291.291,0,0,0,.266.252c.124.01.25.015.376.015a6.862,6.862,0,0,0,5.055-2.593,8.013,8.013,0,0,0,1.883-5.8A.293.293,0,0,0,156.536,0Z" transform="translate(-135.075 0)"/></svg>