<svg xmlns="http://www.w3.org/2000/svg" width="58.64" height="58.64" viewBox="0 0 58.64 58.64"><defs><style>.a{fill:none;stroke:#000;stroke-linecap:round;stroke-linejoin:round;stroke-width:2px;}</style></defs><g transform="translate(1 1)"><path class="a" d="M.5,10.5v4.889a2.445,2.445,0,0,0,2.445,2.445H7.834" transform="translate(-0.5 13.946)"/><path class="a" d="M7.834.5H2.945A2.445,2.445,0,0,0,.5,2.945V7.834" transform="translate(-0.5 -0.5)"/><path class="a" d="M23.789,7.758V2.945A2.445,2.445,0,0,0,21.344.5H16.531" transform="translate(22.658 -0.5)"/><ellipse class="a" cx="10" cy="10.5" rx="10" ry="10.5" transform="translate(31.132 30.854)"/><line class="a" x2="7.754" y2="7.754" transform="translate(48.471 48.472)"/><line class="a" y2="15.89" transform="translate(7.334 7.258)"/><line class="a" y2="15.89" transform="translate(39.114 7.258)"/><line class="a" y2="9.778" transform="translate(12.223 7.258)"/><line class="a" y2="9.778" transform="translate(24.446 7.258)"/><line class="a" y2="9.778" transform="translate(29.335 7.258)"/><line class="a" y2="9.778" transform="translate(17.112 7.258)"/><line class="a" y2="9.778" transform="translate(34.224 7.258)"/><line class="a" y1="1.222" transform="translate(12.223 21.926)"/><line class="a" y1="1.222" transform="translate(17.112 21.926)"/><line class="a" y1="1.222" transform="translate(24.446 21.926)"/><line class="a" y1="1.222" transform="translate(29.335 21.926)"/><line class="a" y1="1.222" transform="translate(34.224 21.926)"/></g></svg>