<svg xmlns="http://www.w3.org/2000/svg" width="52" height="51" viewBox="0 0 52 51"><defs><style>.a{fill:none;stroke:#000;stroke-linecap:round;stroke-linejoin:round;stroke-width:2px;}</style></defs><g transform="translate(1.368 0.906)"><rect class="a" width="50" height="49" rx="2" transform="translate(-0.368 0.094)"/><line class="a" x2="50" transform="translate(-0.368 11.094)"/><rect class="a" width="14" height="9" rx="0.5" transform="translate(28.632 18.094)"/><rect class="a" width="14" height="11" rx="0.5" transform="translate(28.632 32.094)"/><rect class="a" width="15" height="17" rx="0.5" transform="translate(6.632 18.094)"/><circle class="a" cx="3" cy="3" r="3" transform="translate(10.632 21.094)"/><path class="a" d="M4.511,19.9a5.939,5.939,0,0,1,5.333-6.4,5.939,5.939,0,0,1,5.333,6.4" transform="translate(4.249 14.342)"/><line class="a" x2="8.533" transform="translate(7.693 38.509)"/><line class="a" x2="8.533" transform="translate(7.693 42.776)"/><path class="a" d="M4.283,2.75a.533.533,0,1,1-.533.533.533.533,0,0,1,.533-.533" transform="translate(3.409 2.159)"/><path class="a" d="M7.283,2.75a.533.533,0,1,1-.533.533.533.533,0,0,1,.533-.533" transform="translate(6.81 2.159)"/><path class="a" d="M10.283,2.75a.533.533,0,1,1-.533.533.533.533,0,0,1,.533-.533" transform="translate(10.21 2.159)"/></g></svg>