<svg xmlns="http://www.w3.org/2000/svg" width="48" height="42" viewBox="0 0 48 42"><defs><style>.a{fill:none;stroke:#000;stroke-linecap:round;stroke-linejoin:round;stroke-width:2px;}</style></defs><g transform="translate(0.5 -0.533)"><rect class="a" width="46" height="40" rx="2" transform="translate(0.5 1.533)"/><line class="a" x2="46" transform="translate(0.5 11.533)"/><path class="a" d="M4.248,4.25a.5.5,0,1,1-.5.5.5.5,0,0,1,.5-.5" transform="translate(3.228 2.235)"/><path class="a" d="M7.248,4.25a.5.5,0,1,1-.5.5.5.5,0,0,1,.5-.5" transform="translate(6.208 2.235)"/><path class="a" d="M10.248,4.25a.5.5,0,1,1-.5.5.5.5,0,0,1,.5-.5" transform="translate(9.187 2.235)"/><rect class="a" width="14" height="15" rx="0.5" transform="translate(6.5 19.533)"/><path class="a" d="M3.631,22.244l6.877-8.473a1,1,0,0,1,1.628.116L17.1,22.2" transform="translate(3.11 11.325)"/><rect class="a" width="14" height="15" rx="0.5" transform="translate(26.5 19.533)"/><path class="a" d="M13.631,22.244l6.877-8.473a1,1,0,0,1,1.628.116L27.1,22.2" transform="translate(13.042 11.325)"/></g></svg>