<svg xmlns="http://www.w3.org/2000/svg" width="29" height="29" viewBox="0 0 29 29"><defs><style>.a{fill:none;stroke:#2c2c2d;stroke-linecap:round;stroke-linejoin:round;}</style></defs><g transform="translate(0.746 0.746)"><rect class="a" width="28" height="25" rx="1" transform="translate(-0.246 2.754)"/><line class="a" y2="4" transform="translate(3.754 -0.246)"/><line class="a" y2="4" transform="translate(8.754 -0.246)"/><line class="a" y2="4" transform="translate(13.754 -0.246)"/><line class="a" y2="4" transform="translate(18.754 -0.246)"/><line class="a" y2="4" transform="translate(23.754 -0.246)"/><path class="a" d="M12.75,8.5H16.5v5h-5V9.75A1.25,1.25,0,0,1,12.75,8.5Z" transform="translate(2.254 0.251)"/><path class="a" d="M15.5,8.5h3.751A1.25,1.25,0,0,1,20.5,9.75V13.5h-5Z" transform="translate(3.255 0.251)"/><rect class="a" width="5" height="5" transform="translate(13.754 13.754)"/><rect class="a" width="5" height="5" transform="translate(18.754 13.754)"/><rect class="a" width="5" height="5" transform="translate(13.754 18.754)"/><path class="a" d="M15.5,16.5h5v3.751a1.25,1.25,0,0,1-1.25,1.25H15.5Z" transform="translate(3.255 2.254)"/><path class="a" d="M4.75,12.5H8.5v5h-5V13.75A1.25,1.25,0,0,1,4.75,12.5Z" transform="translate(0.251 1.253)"/><rect class="a" width="5" height="5" transform="translate(8.754 13.754)"/><path class="a" d="M3.5,16.5h5v5H4.75a1.25,1.25,0,0,1-1.25-1.25Z" transform="translate(0.251 2.254)"/><rect class="a" width="5" height="5" transform="translate(8.754 18.754)"/></g></svg>