<svg xmlns="http://www.w3.org/2000/svg" width="40.301" height="46.023" viewBox="0 0 40.301 46.023"><defs><style>.a{fill:none;stroke:#2c2c2e;stroke-linecap:round;stroke-linejoin:round;stroke-width:2px;}</style></defs><g transform="translate(-0.825 0.914)"><path class="a" d="M16.21,2.172a1.878,1.878,0,0,1,2.657,0L32.147,15.451a1.878,1.878,0,0,1,0,2.656c-1.315,1.326-3.514,3.514-5.978,5.978a10.861,10.861,0,0,1-15.27-.663,10.861,10.861,0,0,1-.663-15.266Z" transform="translate(4.909 0.984)"/><line class="a" y1="5.311" x2="5.311" transform="translate(26.432 0.5)"/><line class="a" y1="5.311" x2="5.311" transform="translate(34.4 8.467)"/><path class="a" d="M15.763,13.354a2.817,2.817,0,1,1,0-3.983,2.817,2.817,0,0,1,0,3.983Z" transform="translate(8.013 7.064)"/><path class="a" d="M14.288,16.03l-4.214,4.212L6.09,16.259,10.3,12.045" transform="translate(3.742 10.137)"/><path class="a" d="M15.3,30.656l3.595-3.595a2.884,2.884,0,0,0-4.077-4.079l-6.432,6.43a3.9,3.9,0,0,1-4.971.552,3.756,3.756,0,0,1-.483-5.72l8.894-8.894" transform="translate(0 13.039)"/></g></svg>