<svg xmlns="http://www.w3.org/2000/svg" width="56.357" height="56.357" viewBox="0 0 56.357 56.357"><defs><style>.a{fill:none;stroke:#000;stroke-linecap:round;stroke-linejoin:round;stroke-width:2px;}</style></defs><g transform="translate(1 1)"><path class="a" d="M17.044,26.5H12.317l-7.09,7.09V26.5H2.863A2.363,2.363,0,0,1,.5,24.134V2.863A2.363,2.363,0,0,1,2.863.5h28.36a2.363,2.363,0,0,1,2.363,2.363v21.27" transform="translate(-0.5 -0.5)"/><path class="a" d="M26.044,10.5h14.18a2.363,2.363,0,0,1,2.363,2.363V31.77a2.363,2.363,0,0,1-2.363,2.363H37.86v7.09l-7.09-7.09H11.863A2.363,2.363,0,0,1,9.5,31.77V12.863A2.363,2.363,0,0,1,11.863,10.5h2.363" transform="translate(11.77 13.134)"/><path class="a" d="M5.5,16.68V6.045a3.545,3.545,0,0,1,7.09,0V16.68" transform="translate(6.317 2.227)"/><line class="a" x2="7" transform="translate(11.624 11.504)"/><line class="a" y1="2" transform="translate(39.624 28.504)"/><line class="a" x2="14" transform="translate(32.624 30.504)"/><path class="a" d="M16,13.5a11.5,11.5,0,0,0,9.453,10.635" transform="translate(20.632 17.224)"/><path class="a" d="M24.453,13.5A11.5,11.5,0,0,1,15,24.135" transform="translate(19.269 17.224)"/></g></svg>