<svg xmlns="http://www.w3.org/2000/svg" width="29.791" height="29.789" viewBox="0 0 29.791 29.789"><defs><style>.a{fill:#999;}</style></defs><path class="a" d="M95.506,101.085a5.567,5.567,0,1,0,5.567-5.567A5.573,5.573,0,0,0,95.506,101.085Z" transform="translate(-86.177 -86.189)"/><path class="a" d="M57.254,7.559a.244.244,0,0,0,0-.245A14.888,14.888,0,0,0,44.436.012,14.831,14.831,0,0,0,32.791,5.619a.244.244,0,0,0-.021.274l4.193,7.263a.244.244,0,0,0,.211.122l.033,0a.244.244,0,0,0,.2-.181,7.253,7.253,0,0,1,7.024-5.441c.205,0,.417.009.631.028H57.042A.244.244,0,0,0,57.254,7.559Z" transform="translate(-29.54 -0.012)"/><path class="a" d="M17.1,90.971a.244.244,0,0,0-.258-.086A7.254,7.254,0,0,1,8.327,86.97l-.01-.018L2.336,76.591a.244.244,0,0,0-.211-.122h0a.244.244,0,0,0-.211.124A14.9,14.9,0,0,0,12.673,98.627l.036,0a.244.244,0,0,0,.211-.122l4.194-7.265A.244.244,0,0,0,17.1,90.971Z" transform="translate(0 -69.001)"/><path class="a" d="M165.423,95.226h-8.4a.244.244,0,0,0-.171.419,7.238,7.238,0,0,1,.883,9.308l-.011.017-5.992,10.378a.244.244,0,0,0,.211.366h0a14.9,14.9,0,0,0,13.7-20.334A.244.244,0,0,0,165.423,95.226Z" transform="translate(-136.884 -85.926)"/></svg>