<svg xmlns="http://www.w3.org/2000/svg" width="47.453" height="47.453" viewBox="0 0 47.453 47.453"><defs><style>.a{fill:none;stroke:#000;stroke-linecap:round;stroke-linejoin:round;stroke-width:2px;}</style></defs><g transform="translate(0.5 0.5)"><circle class="a" cx="8.869" cy="8.869" r="8.869" transform="translate(23.999 23.999)"/><line class="a" x1="6.36" y1="6.36" transform="translate(39.179 39.179)"/><line class="a" x2="18.603" transform="translate(8.333 16.166)"/><line class="a" x2="12" transform="translate(8.5 22.5)"/><line class="a" x2="14" transform="translate(8.5 10.5)"/><line class="a" x2="8" transform="translate(8.5 27.5)"/><line class="a" x2="8" transform="translate(8.5 33.5)"/><path class="a" d="M24,45.539H2.458A1.958,1.958,0,0,1,.5,43.581V2.458A1.958,1.958,0,0,1,2.458.5H28.489a1.958,1.958,0,0,1,1.384.573l7.259,7.259a1.958,1.958,0,0,1,.574,1.384v8.407"/></g></svg>