<svg xmlns="http://www.w3.org/2000/svg" width="30.01" height="30.01" viewBox="0 0 30.01 30.01"><defs><style>.a{fill:#999;}</style></defs><g transform="translate(2.063 2.064)"><path class="a" d="M35.205,48.98A35.833,35.833,0,0,1,48.979,35.206,13.957,13.957,0,0,0,35.205,48.98Z" transform="translate(-35.205 -35.206)"/></g><g transform="translate(0 0)"><path class="a" d="M27.648,8.248c.647-2.382.722-5.1-1-6.818S22-.462,18.374.908a21.8,21.8,0,0,0-2.535,1.156,14.062,14.062,0,0,1,3.459.379C23.687.885,26.906,1.878,26.23,6.47A13.948,13.948,0,0,0,19.3,2.442C12.618,4.787,4.8,12.589,2.443,19.3a13.954,13.954,0,0,0,4.034,6.937c-4.27.646-5.726-2.171-4.034-6.937a14.059,14.059,0,0,1-.379-3.459A21.781,21.781,0,0,0,.909,18.373c-1.37,3.63-1.184,6.569.522,8.275,1.722,1.722,4.461,1.646,6.819,1A13.993,13.993,0,0,0,29,21.276a.88.88,0,0,0-.815-1.209H21.727a.879.879,0,0,0-.665.3,6.633,6.633,0,0,1-10.927-1.3c-.04-.09-.182-.518.341-.518H29.031a.88.88,0,0,0,.873-.771,14.317,14.317,0,0,0,.107-1.745A13.9,13.9,0,0,0,27.648,8.248ZM21.611,13.52H10.473c-.528,0-.365-.447-.34-.509a6.634,6.634,0,0,1,11.831.033C22,13.166,22.081,13.52,21.611,13.52Z" transform="translate(-0.001 0)"/></g></svg>