<svg xmlns="http://www.w3.org/2000/svg" width="43.257" height="43.206" viewBox="0 0 43.257 43.206"><defs><style>.a{fill:none;stroke:#000;stroke-linecap:round;stroke-linejoin:round;stroke-width:2px;}</style></defs><g transform="translate(1 1)"><path class="a" d="M20.243,41.692H2.333A1.791,1.791,0,0,1,.542,39.9V2.291A1.791,1.791,0,0,1,2.333.5H26.14a1.791,1.791,0,0,1,1.266.537l6.639,6.627A1.791,1.791,0,0,1,34.57,8.93v4.107" transform="translate(-0.542 -0.5)"/><path class="a" d="M8.915,7,3.542,12.377,8.915,17.75" transform="translate(1.831 4.644)"/><path class="a" d="M9.542,7l5.373,5.373L9.542,17.75" transform="translate(6.577 4.644)"/><circle class="a" cx="2.574" cy="2.574" r="2.574" transform="translate(28.321 27.04)"/><path class="a" d="M24.524,12.194l.759,2.493A1.7,1.7,0,0,0,27.3,15.856l2.527-.586a2.3,2.3,0,0,1,2.187,3.808l-1.768,1.906a1.723,1.723,0,0,0,0,2.339l1.768,1.906a2.3,2.3,0,0,1-2.187,3.808L27.3,28.45a1.7,1.7,0,0,0-2.013,1.17l-.759,2.5a2.283,2.283,0,0,1-4.374,0l-.759-2.507a1.7,1.7,0,0,0-2.015-1.169l-2.527.586a2.3,2.3,0,0,1-2.187-3.808l1.768-1.906a1.723,1.723,0,0,0,0-2.339l-1.768-1.906a2.3,2.3,0,0,1,2.187-3.808l2.527.586a1.705,1.705,0,0,0,2.015-1.169l.759-2.493a2.283,2.283,0,0,1,4.374.007Z" transform="translate(8.557 7.46)"/></g></svg>