<svg xmlns="http://www.w3.org/2000/svg" width="30" height="28.179" viewBox="0 0 30 28.179"><defs><style>.a{fill:#999;}</style></defs><path class="a" d="M29.7,18.565a.246.246,0,0,0-.261.142l-.336.743a25.812,25.812,0,0,0-.676-3.58A6.893,6.893,0,0,0,26.9,13.213a.246.246,0,0,0-.414.227l.261,1.175a9.773,9.773,0,0,0-2.634-2.055c-.24-.117-.484-.224-.7-.317A11.792,11.792,0,0,0,5.63,14.716a2.183,2.183,0,0,1-.661-.878,9.2,9.2,0,0,1-.456-1.577.246.246,0,0,0-.412-.134,6.333,6.333,0,0,0-1.56,5.045,13.3,13.3,0,0,0-1.5,1.971A10.258,10.258,0,0,0,0,22.729a.246.246,0,0,0,.423.195l.529-.558c-.058.214-.116.457-.169.73a16.228,16.228,0,0,0-.165,3.082.246.246,0,0,0,.468.1l.311-.659a13.989,13.989,0,0,0,4.486,8.158,14.109,14.109,0,0,0,9.543,3.666h0a14.332,14.332,0,0,0,9.444-3.577A15.662,15.662,0,0,0,29.725,24.3a22.153,22.153,0,0,0,.184-5.524A.246.246,0,0,0,29.7,18.565Zm-5.49.089a3.043,3.043,0,0,1,.41,1.561,17.1,17.1,0,0,1-.23,2.911l-.655-.76a.246.246,0,0,0-.43.19,12.114,12.114,0,0,1-.15,3.557,5.25,5.25,0,0,1-.695,1.7l.092-1.239a.246.246,0,0,0-.469-.12,7.142,7.142,0,0,1-4.257,3.428,4.615,4.615,0,0,1-1.36.2,7.4,7.4,0,0,1-4.018-1.44q.11.006.219.006a5.813,5.813,0,0,0,2.92-.95c.2-.111.386-.216.567-.305a4.079,4.079,0,0,1,1.979-.592.407.407,0,0,0,.413-.312c.121-.473-.447-1.315-1.149-1.7a2.359,2.359,0,0,0-1.171-.277,12.234,12.234,0,0,0-2.88.571,2.67,2.67,0,0,1-.686.094,2.132,2.132,0,0,1-1.592-.694,2.065,2.065,0,0,1-.591-1.47c.015-.219.1-.443.622-.443a3.316,3.316,0,0,1,.981.192.245.245,0,0,0,.087.016h0a.246.246,0,0,0,.246-.246.255.255,0,0,0,0-.039l-.069-2.154c.248-.158.843-.544,1.414-.959,1.382-1,1.567-1.389,1.419-1.681-.2-.4-.712-.462-1.309-.537a5.744,5.744,0,0,1-1.079-.207,2.875,2.875,0,0,1-1.318-1.026,1.475,1.475,0,0,1,.137-.938,6,6,0,0,1,1.321-1.245.246.246,0,0,0-.117-.444,5.106,5.106,0,0,0-1.959.321,7.388,7.388,0,0,0-2,1.055c-.112-.022-.3-.052-.623-.085a9.785,9.785,0,0,1,7.353-3.316A9.687,9.687,0,0,1,21.292,13.1l-1.653.276a.246.246,0,0,0-.033.477,14.349,14.349,0,0,1,3.866,1.969,4.624,4.624,0,0,1,.994,1.1,9.894,9.894,0,0,1,.641,1.808l-.553-.43a.246.246,0,0,0-.343.348Z" transform="translate(0 -9.258)"/></svg>