<svg xmlns="http://www.w3.org/2000/svg" width="42.403" height="42.402" viewBox="0 0 42.403 42.402"><defs><style>.a{fill:none;stroke:#000;stroke-linecap:round;stroke-linejoin:round;stroke-width:1.5px;}</style></defs><g transform="translate(0.25 0.25)"><circle class="a" cx="3.557" cy="3.557" r="3.557" transform="translate(8.503 9.392)"/><path class="a" d="M23.148,17.028l-4.167-6.667a.889.889,0,0,0-1.508,0L12.78,17.869l-1.912-3.062a.889.889,0,0,0-1.508,0L4,23.382H15.892" transform="translate(2.724 7.35)"/><path class="a" d="M14.727,41.4H2.278A1.778,1.778,0,0,1,.5,39.624V2.278A1.778,1.778,0,0,1,2.278.5H24.661a1.778,1.778,0,0,1,1.257.521l7.85,7.85a1.778,1.778,0,0,1,.521,1.257v4.6"/><path class="a" d="M31.738,17.938,18.169,31.507,11.5,32.841l1.334-6.669L26.4,12.6a3.759,3.759,0,0,1,5.321,0l.014.014a3.759,3.759,0,0,1,0,5.321Z" transform="translate(8.562 8.562)"/></g></svg>