<svg xmlns="http://www.w3.org/2000/svg" width="63.188" height="44.864" viewBox="0 0 63.188 44.864"><defs><style>.a{fill:#323234;}</style></defs><g transform="translate(-93.328 343.76)"><path class="a" d="M205.041,317.287c1.931,3.153,4.444,5.471,8.888,5.471,3.733,0,6.118-1.866,6.118-4.444,0-3.089-2.45-4.184-6.559-5.981l-2.252-.966c-6.5-2.77-10.821-6.24-10.821-13.575,0-6.757,5.149-11.9,13.195-11.9,5.728,0,9.847,1.994,12.814,7.214l-7.016,4.5c-1.545-2.77-3.211-3.861-5.8-3.861-2.639,0-4.312,1.674-4.312,3.861,0,2.7,1.674,3.8,5.54,5.471l2.252.965c7.655,3.283,11.977,6.629,11.977,14.154,0,8.112-6.372,12.556-14.93,12.556-8.367,0-13.773-3.987-16.418-9.214Zm-31.827.781c1.415,2.511,2.7,4.634,5.8,4.634,2.96,0,4.827-1.158,4.827-5.661V286.4h9.01v30.758c0,9.329-5.47,13.575-13.454,13.575-7.214,0-11.391-3.733-13.516-8.23Z" transform="translate(-72.552 -629.65)"/></g></svg>