<svg xmlns="http://www.w3.org/2000/svg" width="42.687" height="41.319" viewBox="0 0 42.687 41.319"><defs><style>.a{fill:none;stroke:#000;stroke-linecap:round;stroke-linejoin:round;stroke-width:1.5px;}</style></defs><g transform="translate(-0.504 -0.75)"><path class="a" d="M17.185,17.347c0,2.818-3.6,6.585-3.6,6.585s-3.6-3.768-3.6-6.585a3.6,3.6,0,1,1,7.188,0Z" transform="translate(7.789 10.75)"/><path class="a" d="M17.464,7.188c0-3.142-3.792-5.688-3.792-5.688S9.88,4.046,9.88,7.188V20.461h7.584Z" transform="translate(7.707)"/><path class="a" d="M12.509,14.636H7.894a.948.948,0,0,1-.918-1.183A8.235,8.235,0,0,1,12.509,8" transform="translate(5.078 5.825)"/><path class="a" d="M13.88,14.636H18.5a.948.948,0,0,0,.92-1.183A8.254,8.254,0,0,0,13.88,8" transform="translate(11.292 5.825)"/><path class="a" d="M11.568,13.508a1.9,1.9,0,0,0-1.9.948,1.041,1.041,0,0,0,0,.948H8.724A2.929,2.929,0,0,0,5.88,18.248" transform="translate(4.123 10.746)"/><path class="a" d="M14.88,13.508a1.9,1.9,0,0,1,1.9.948,1.035,1.035,0,0,1,0,.948h.948a2.928,2.928,0,0,1,2.844,2.844" transform="translate(12.188 10.746)"/><path class="a" d="M35.6,17.5a2.112,2.112,0,0,1,1.951.948l4.685,5.688a2.012,2.012,0,0,1-1.9,2.844H3.331A1.993,1.993,0,0,1,1.47,24.14l4.645-5.688A1.9,1.9,0,0,1,7.754,17.5" transform="translate(0 14.334)"/><path class="a" d="M11.465,5.5H5.776a1.9,1.9,0,0,0-1.9,1.9V26.357c0,1.047-.1,1.9.948,1.9h6.636" transform="translate(2.329 3.584)"/><path class="a" d="M15.88,28.253h6.636c1.049,0,.948-.849.948-1.9V7.4a1.9,1.9,0,0,0-1.9-1.9H15.88" transform="translate(13.084 3.584)"/><line class="a" x2="5.688" transform="translate(18.535 37.526)"/></g></svg>