<svg xmlns="http://www.w3.org/2000/svg" width="66" height="66.306" viewBox="0 0 66 66.306"><defs><style>.a{fill:none;}.a,.b{stroke:#fe8e14;stroke-linecap:round;stroke-linejoin:round;stroke-width:3px;}.b{fill:rgba(0,0,0,0);}</style></defs><g transform="translate(0.986 1)"><line class="a" x1="8" transform="translate(28.514 63.806)"/><line class="a" x1="14" transform="translate(25.514 57.806)"/><line class="a" y2="8.268" transform="translate(32.209 0.5)"/><line class="a" x2="5.848" y2="5.846" transform="translate(8.821 10.188)"/><line class="a" x1="5.846" y2="5.846" transform="translate(49.749 10.188)"/><line class="a" x2="9" transform="translate(0.514 33.806)"/><line class="a" x1="8" transform="translate(55.514 33.806)"/><path class="b" d="M39.088,23.049A16.537,16.537,0,1,0,13.1,36.6a2.756,2.756,0,0,1,1.182,2.263v2.1a1.378,1.378,0,0,0,1.378,1.378h13.78a1.378,1.378,0,0,0,1.378-1.378v-2.1A2.756,2.756,0,0,1,32,36.6a16.481,16.481,0,0,0,7.086-13.549Z" transform="translate(9.657 10.524)"/></g></svg>