<svg xmlns="http://www.w3.org/2000/svg" width="45.287" height="53.026" viewBox="0 0 45.287 53.026"><defs><style>.a{fill:#fff;}</style></defs><path class="a" d="M66.139,42.576c-1.555-.637-2.22-1.482-2.156-2.743a4.2,4.2,0,0,0-1.165-2.976,12.9,12.9,0,0,0,0-6.831c-1.009-2.943-4.09-7.439-7.269-11.858-1.3-1.815-1.363-3.787-1.434-6.071A18.459,18.459,0,0,0,52.756,4.7,7.646,7.646,0,0,0,45.483,0a9.954,9.954,0,0,0-5.531,1.684C36.776,3.876,37.2,8.655,37.474,11.818c.038.433.074.842.095,1.191.185,3.1.017,4.73-.2,5.226A21.454,21.454,0,0,1,35.78,20.46c-.767,1.01-1.637,2.156-2.35,3.223a25.247,25.247,0,0,0-2.2,5.146,24.672,24.672,0,0,1-1.392,3.485,4.746,4.746,0,0,0-.46,3.565A3.663,3.663,0,0,0,28.2,37.367c-.473,1.008-1.431,1.55-3.425,1.934A2.64,2.64,0,0,0,22.9,40.445a3.247,3.247,0,0,0,.02,2.595,4.037,4.037,0,0,1-.267,2.925c-.092.279-.2.595-.3.943a1.7,1.7,0,0,0,.178,1.485c.753,1.151,2.95,1.557,5.212,1.824A20.089,20.089,0,0,1,32,51.44a19.989,19.989,0,0,0,4.166,1.2,4.735,4.735,0,0,0,.589.038,3.466,3.466,0,0,0,3.171-1.861,35.241,35.241,0,0,1,5.715-.675,24.82,24.82,0,0,1,5.681.584,4.57,4.57,0,0,0,1.712,1.864,4.152,4.152,0,0,0,1.925.434h0a4.643,4.643,0,0,0,3.384-1.4c1.153-1.222,4.034-2.782,6.138-3.921.469-.254.909-.492,1.294-.707a2.9,2.9,0,0,0,1.769-2.568A2.171,2.171,0,0,0,66.139,42.576Zm-26.16-.235c-.147-1.036-1.48-2.064-3.024-3.254-1.262-.973-2.693-2.076-3.087-3.01-.815-1.927-.172-5.314.947-7.059a17.925,17.925,0,0,0,1.442-3.479A12.5,12.5,0,0,1,37.763,22.1a8.776,8.776,0,0,0,1.8-4.378,5.464,5.464,0,0,0,3.225,1.753,1.9,1.9,0,0,0,.518-.07A17.42,17.42,0,0,0,46.4,17.849a13.2,13.2,0,0,1,2.625-1.319C49.8,17.642,54.3,27.6,54.755,30.794a15.117,15.117,0,0,1-.214,5.44,4,4,0,0,0-.535-.038c-1.253,0-1.585.684-1.671,1.092a44.227,44.227,0,0,0-.248,5.216,10.366,10.366,0,0,1-6.034,3.774,26.124,26.124,0,0,1-3.719.293,12.563,12.563,0,0,1-1.834-.113l-1.653-1.891A2.008,2.008,0,0,0,39.979,42.34Zm2.1-31.188q-.077.033-.152.071a3.078,3.078,0,0,0-.035-.339,1.927,1.927,0,0,0-1.638-1.793,1.157,1.157,0,0,0-.177.014,1.37,1.37,0,0,0-1.012.906c.172-1.068.777-1.859,1.5-1.859.843,0,1.556,1.136,1.556,2.481A3.67,3.67,0,0,1,42.076,11.153Zm6.552.8a2.632,2.632,0,0,0,.119-.788,1.979,1.979,0,0,0-1.761-2.175,2,2,0,0,0-1.751,2.175q0,.123.012.245l-.15-.057a3.325,3.325,0,0,1-.167-1.046,2.416,2.416,0,0,1,2.078-2.645,2.416,2.416,0,0,1,2.078,2.645A3.113,3.113,0,0,1,48.628,11.954Zm-.845,2.838c-.017.074-.052.106-.44.308-.2.1-.44.229-.746.415l-.2.124a18.9,18.9,0,0,1-3.262,1.73c-.354.048-.573-.09-1.066-.424-.111-.076-.229-.156-.355-.237a4.177,4.177,0,0,1-1.524-1.475c.289-.224,1.007-.784,1.374-1.115a3.97,3.97,0,0,1,1.867-1.159.294.294,0,0,1,.056,0,18.582,18.582,0,0,1,2.3.82c.363.145.677.27.9.349A2.152,2.152,0,0,1,47.783,14.792Zm6.25,32.4a25.746,25.746,0,0,0,.771-5.6c-.017-.323-.045-.674-.073-1.013a9.313,9.313,0,0,1-.049-1.857.339.339,0,0,1,.052-.019c0,.812.18,2.43,1.474,2.995a3.261,3.261,0,0,0,1.31.253,5.35,5.35,0,0,0,3.325-1.226,6.049,6.049,0,0,0,.843-1.108,1.337,1.337,0,0,1,.058.522,3.742,3.742,0,0,0,1.612,3.37l.161.085c.394.207,1.442.757,1.458,1.018a.232.232,0,0,1-.067.085,15.118,15.118,0,0,1-2.079,1.167,18.168,18.168,0,0,0-4.186,2.574,5.719,5.719,0,0,1-3.195,2A.84.84,0,0,1,55.2,50.4C54.354,50.142,53.661,48.926,54.033,47.194ZM25.327,42.678a2.358,2.358,0,0,1-.081-1.027c.053-.228,1.177-.472,1.657-.576a6.459,6.459,0,0,0,1.83-.575,3.711,3.711,0,0,0,1.247-1.672,2.6,2.6,0,0,1,.7-1.044.148.148,0,0,1,.08-.019c.491,0,1.523,1.033,2.117,1.958.151.233.43.7.753,1.241a39.674,39.674,0,0,0,2.98,4.573c.623.667,1.63,1.95,1.383,3.05a3.34,3.34,0,0,1-1.376,1.7,1.41,1.41,0,0,1-.306.028c-1.322,0-3.94-1.1-5.346-1.691l-.208-.087a16.946,16.946,0,0,0-3.307-.737,10.8,10.8,0,0,1-2.561-.576c-.182-.2.029-.865.215-1.449a9.4,9.4,0,0,0,.347-1.308A4.761,4.761,0,0,0,25.327,42.678Z" transform="translate(-22.257)"/></svg>