<svg xmlns="http://www.w3.org/2000/svg" width="30.369" height="35.559" viewBox="0 0 30.369 35.559"><defs><style>.a{fill:#999;}</style></defs><path class="a" d="M51.684,28.551c-1.043-.427-1.489-.994-1.446-1.839a2.82,2.82,0,0,0-.781-2,8.65,8.65,0,0,0,0-4.581c-.677-1.974-2.743-4.988-4.874-7.952a6.827,6.827,0,0,1-.962-4.071,12.378,12.378,0,0,0-.912-4.958A5.128,5.128,0,0,0,37.832,0a6.675,6.675,0,0,0-3.709,1.129c-2.13,1.47-1.849,4.675-1.662,6.8.026.29.05.565.064.8a10.51,10.51,0,0,1-.136,3.5,14.387,14.387,0,0,1-1.063,1.492c-.514.678-1.1,1.446-1.576,2.161a16.931,16.931,0,0,0-1.476,3.451,16.545,16.545,0,0,1-.933,2.337,3.182,3.182,0,0,0-.309,2.391,2.456,2.456,0,0,0-.788,1c-.317.676-.96,1.04-2.3,1.3a1.771,1.771,0,0,0-1.26.768,2.178,2.178,0,0,0,.013,1.74,2.707,2.707,0,0,1-.179,1.962c-.062.187-.132.4-.2.632a1.14,1.14,0,0,0,.12,1c.5.772,1.978,1.044,3.5,1.223a13.472,13.472,0,0,1,2.856.82,13.4,13.4,0,0,0,2.794.806,3.175,3.175,0,0,0,.4.025A2.325,2.325,0,0,0,34.1,34.079a23.633,23.633,0,0,1,3.832-.453,16.644,16.644,0,0,1,3.809.391,3.065,3.065,0,0,0,1.148,1.25,2.785,2.785,0,0,0,1.291.291h0a3.113,3.113,0,0,0,2.27-.937,20.334,20.334,0,0,1,4.116-2.629c.315-.17.609-.33.868-.474A1.941,1.941,0,0,0,52.624,29.8,1.456,1.456,0,0,0,51.684,28.551Zm-17.543-.158c-.1-.695-.993-1.384-2.028-2.182a7.172,7.172,0,0,1-2.07-2.018,6.085,6.085,0,0,1,.635-4.734,12.021,12.021,0,0,0,.967-2.333,8.385,8.385,0,0,1,1.01-2.306,5.885,5.885,0,0,0,1.21-2.936,3.664,3.664,0,0,0,2.162,1.176,1.274,1.274,0,0,0,.347-.047,11.682,11.682,0,0,0,2.072-1.043,8.849,8.849,0,0,1,1.76-.884c.519.745,3.536,7.421,3.844,9.565a10.137,10.137,0,0,1-.143,3.648,2.683,2.683,0,0,0-.359-.026c-.84,0-1.063.459-1.121.733a29.659,29.659,0,0,0-.166,3.5,6.951,6.951,0,0,1-4.046,2.531,17.518,17.518,0,0,1-2.494.2,8.425,8.425,0,0,1-1.23-.076l-1.109-1.268A1.347,1.347,0,0,0,34.141,28.393ZM35.548,7.479q-.052.022-.1.048a2.064,2.064,0,0,0-.023-.228,1.292,1.292,0,0,0-1.1-1.2.776.776,0,0,0-.119.009.919.919,0,0,0-.679.608c.116-.716.521-1.247,1-1.247.565,0,1.043.762,1.043,1.664A2.461,2.461,0,0,1,35.548,7.479Zm4.394.537a1.765,1.765,0,0,0,.08-.528A1.327,1.327,0,0,0,38.84,6.029a1.341,1.341,0,0,0-1.174,1.458q0,.082.008.165l-.1-.038a2.23,2.23,0,0,1-.112-.7,1.62,1.62,0,0,1,1.393-1.773,1.62,1.62,0,0,1,1.393,1.773A2.088,2.088,0,0,1,39.941,8.016Zm-.567,1.9c-.011.049-.035.071-.3.207-.132.068-.3.154-.5.278l-.137.083a12.677,12.677,0,0,1-2.188,1.16c-.237.032-.384-.06-.715-.285-.075-.051-.154-.1-.238-.159a2.8,2.8,0,0,1-1.022-.989c.194-.15.675-.526.922-.748a2.662,2.662,0,0,1,1.252-.777.2.2,0,0,1,.037,0,12.461,12.461,0,0,1,1.542.55c.244.1.454.181.6.234A1.443,1.443,0,0,1,39.375,9.919Zm4.191,21.728a17.265,17.265,0,0,0,.517-3.754c-.011-.216-.03-.452-.049-.679A6.245,6.245,0,0,1,44,25.969a.227.227,0,0,1,.035-.013,2.114,2.114,0,0,0,.989,2.008,2.186,2.186,0,0,0,.879.17,3.588,3.588,0,0,0,2.23-.822,4.056,4.056,0,0,0,.566-.743.9.9,0,0,1,.039.35,2.509,2.509,0,0,0,1.081,2.26l.108.057c.264.139.967.508.978.682a.156.156,0,0,1-.045.057,10.138,10.138,0,0,1-1.394.783,12.183,12.183,0,0,0-2.807,1.726,3.835,3.835,0,0,1-2.142,1.339.563.563,0,0,1-.17-.024C43.781,33.625,43.316,32.81,43.566,31.648ZM24.316,28.62a1.582,1.582,0,0,1-.054-.688c.035-.153.789-.316,1.111-.386a4.332,4.332,0,0,0,1.227-.386,2.489,2.489,0,0,0,.836-1.121,1.742,1.742,0,0,1,.467-.7.1.1,0,0,1,.054-.013c.33,0,1.021.693,1.42,1.313.1.156.288.47.5.832a26.605,26.605,0,0,0,2,3.066c.418.447,1.093,1.307.927,2.045a2.24,2.24,0,0,1-.923,1.141.945.945,0,0,1-.2.019,13.11,13.11,0,0,1-3.585-1.134l-.14-.059a11.364,11.364,0,0,0-2.218-.494,7.243,7.243,0,0,1-1.718-.386c-.122-.137.019-.58.144-.972a6.3,6.3,0,0,0,.233-.877A3.193,3.193,0,0,0,24.316,28.62Z" transform="translate(-22.257)"/></svg>