<svg xmlns="http://www.w3.org/2000/svg" width="27.983" height="30.282" viewBox="0 0 27.983 30.282"><defs><style>.a{fill:#999;}</style></defs><g transform="translate(0.021)"><path class="a" d="M47.759,14.4A15.138,15.138,0,0,0,46,6.919a13.257,13.257,0,0,0-4.974-5.135,13.764,13.764,0,0,0-7-1.785,14.667,14.667,0,0,0-4.677.727,12.469,12.469,0,0,0-3.781,1.987,14.371,14.371,0,0,0-2.833,2.977,15.468,15.468,0,0,0-1.946,3.672,18.567,18.567,0,0,0-.986,4.057,19.224,19.224,0,0,1,2.314-2.736A19.461,19.461,0,0,1,25.09,8.307a15.3,15.3,0,0,1,3.78-1.768,16.446,16.446,0,0,1,4.391-.753l.371.021a5.92,5.92,0,0,1,.948.144c.382.083.806.2,1.268.346a4.881,4.881,0,0,1,1.363.693A5.93,5.93,0,0,1,38.4,8.114,4.436,4.436,0,0,1,39.2,9.83a6.706,6.706,0,0,1,.136,2.368H28.591a10.864,10.864,0,0,1,.778-2.7,10.248,10.248,0,0,1,1.319-2.124,13.036,13.036,0,0,0-5.5,4.535,11.947,11.947,0,0,0-1.877,6.969,11.043,11.043,0,0,0,2.106,6.295,11.291,11.291,0,0,0,5.269,4.211,14.61,14.61,0,0,0,5.347.9,20.881,20.881,0,0,0,5.286-.643A15.312,15.312,0,0,0,45.2,28.083V21.7a11.394,11.394,0,0,1-2.935,1.429,17.765,17.765,0,0,1-3.518.787,13.348,13.348,0,0,1-3.6-.051,11.028,11.028,0,0,1-3.206-.963,5.666,5.666,0,0,1-2.309-2.072,5.988,5.988,0,0,1-.9-3.257H47.759Z" transform="translate(-19.798 0)"/></g><g transform="translate(0 13.419)"><path class="a" d="M19.443,226.923h.017l0-.03Z" transform="translate(-19.443 -226.893)"/></g></svg>