<svg xmlns="http://www.w3.org/2000/svg" width="50.868" height="51" viewBox="0 0 50.868 51"><defs><style>.a{fill:none;stroke:#000;stroke-linecap:round;stroke-linejoin:round;stroke-width:2px;}</style></defs><g transform="translate(0.501 0.5)"><line class="a" x2="19.122" transform="translate(10.064 49.366)"/><line class="a" y2="4" transform="translate(19.499 45.5)"/><line class="a" x2="38" transform="translate(0.499 38.5)"/><path class="a" d="M38.744,12.874V35a3.285,3.285,0,0,1-3.187,3.374H3.688A3.187,3.187,0,0,1,.5,35.182V9.874A3.285,3.285,0,0,1,3.688,6.5H23.871" transform="translate(0 6.748)"/><path class="a" d="M25.664,26.56c-.867-1.339-3.741-2.312-7.341-3.644-1.016-.378-.85-3.03-.4-3.525a7.487,7.487,0,0,0,1.95-5.809A4.649,4.649,0,0,0,15.117,8.5a4.649,4.649,0,0,0-4.751,5.082,7.487,7.487,0,0,0,1.95,5.809c.45.5.616,3.147-.4,3.525-3.6,1.332-6.478,2.305-7.345,3.644" transform="translate(4.581 8.996)"/><path class="a" d="M34.746,2.625,30.5,3.863V2.625A2.125,2.125,0,0,0,28.372.5H15.625A2.125,2.125,0,0,0,13.5,2.625V13.248a2.125,2.125,0,0,0,2.125,2.125H28.372A2.125,2.125,0,0,0,30.5,13.248V11.831l4.249,1.417Z" transform="translate(14.621)"/></g></svg>