<svg xmlns="http://www.w3.org/2000/svg" width="37.632" height="34.014" viewBox="0 0 37.632 34.014"><defs><style>.a{fill:none;stroke:#000;stroke-linecap:round;stroke-linejoin:round;stroke-width:1.5px;}</style></defs><g transform="translate(-1.247 -2.25)"><path class="a" d="M25.552,13.615a.885.885,0,0,1-.878-.7,3.613,3.613,0,0,0-7.092,0,.885.885,0,0,1-.878.7H13v3.7a.885.885,0,0,0,.7.878,3.613,3.613,0,0,1,0,7.092.885.885,0,0,0-.7.878v3.7h14.45a1.806,1.806,0,0,0,1.806-1.806V13.615Z" transform="translate(8.872 5.642)"/><path class="a" d="M27.167,3a.885.885,0,0,0-.878.7,3.613,3.613,0,0,1-7.092,0A.885.885,0,0,0,18.32,3h-3.7V6.7a.885.885,0,0,1-.7.878,3.613,3.613,0,0,0,0,7.092.885.885,0,0,1,.7.878v3.7h3.7a.885.885,0,0,0,.878-.7,3.613,3.613,0,0,1,7.092,0,.885.885,0,0,0,.878.7h3.7V4.806A1.806,1.806,0,0,0,29.066,3Z" transform="translate(7.257 0)"/><path class="a" d="M4,6.7a.885.885,0,0,0,.7.878,3.613,3.613,0,0,1,0,7.092.885.885,0,0,0-.7.878v3.7H7.7a.885.885,0,0,1,.878.7,3.613,3.613,0,0,0,7.092,0,.885.885,0,0,1,.878-.7h3.7v-3.7a.885.885,0,0,0-.7-.878,3.613,3.613,0,0,1,0-7.092.885.885,0,0,0,.7-.878V3H5.806A1.806,1.806,0,0,0,4,4.806Z" transform="translate(1.615 0)"/><path class="a" d="M22.569,16.583a.885.885,0,0,1-.7-.878V12h-3.7a.885.885,0,0,0-.878.7,3.613,3.613,0,0,1-7.092,0A.885.885,0,0,0,9.32,12h-3.7v3.7a.885.885,0,0,1-.7.878,3.613,3.613,0,0,0,0,7.092.885.885,0,0,1,.7.878v1.9a1.806,1.806,0,0,0,1.806,1.806H21.872v-3.7a.885.885,0,0,1,.7-.878,3.613,3.613,0,0,0,0-7.092Z" transform="translate(0 7.257)"/></g></svg>