<svg xmlns="http://www.w3.org/2000/svg" width="52.108" height="44.303" viewBox="0 0 52.108 44.303"><defs><style>.a{fill:none;stroke:#000;stroke-linecap:round;stroke-linejoin:round;stroke-width:2px;}</style></defs><g transform="translate(1 1)"><ellipse class="a" cx="6.536" cy="3.268" rx="6.536" ry="3.268" transform="translate(18.52 13.073)"/><ellipse class="a" cx="6.536" cy="3.268" rx="6.536" ry="3.268" transform="translate(18.52 0)"/><ellipse class="a" cx="6.536" cy="3.268" rx="6.536" ry="3.268" transform="translate(33.771 6.536)"/><ellipse class="a" cx="6.5" cy="3" rx="6.5" ry="3" transform="translate(4.06 7)"/><line class="a" x1="4.695" y2="2.042" transform="translate(15.43 5.412)"/><line class="a" x1="5.301" y1="2.305" transform="translate(29.982 5.41)"/><path class="a" d="M6.108,7.381,1.807,9.25a2.179,2.179,0,0,0-1.307,2v14.6a2.179,2.179,0,0,0,1.277,1.983L23.6,37.751a2.179,2.179,0,0,0,1.743.028l23.93-9.972a2.179,2.179,0,0,0,1.34-2.011V11.248a2.179,2.179,0,0,0-1.307-2L45.6,7.64" transform="translate(-0.5 4.343)"/><line class="a" y2="17.23" transform="translate(23.967 25.056)"/><line class="a" x1="25.743" y2="10.726" transform="translate(23.967 14.33)"/><line class="a" x1="23.572" y1="10.715" transform="translate(0.394 14.341)"/></g></svg>