<svg xmlns="http://www.w3.org/2000/svg" width="51.02" height="51.067" viewBox="0 0 51.02 51.067"><defs><style>.a{fill:none;stroke:#000;stroke-linecap:round;stroke-linejoin:round;stroke-width:2px;}</style></defs><g transform="translate(1 1)"><path class="a" d="M41.045,26.1V13.242A12.747,12.747,0,0,0,28.3.5H2.644A2.133,2.133,0,0,0,.511,2.633v44.8a2.133,2.133,0,0,0,2.133,2.133H9" transform="translate(-0.511 -0.5)"/><path class="a" d="M14.511.579V8.944a2.133,2.133,0,0,0,2.133,2.133h8.363" transform="translate(15.356 -0.41)"/><path class="a" d="M16.022,19.767a4.267,4.267,0,0,1-4.267,4.267H7.489V15.5h4.267A4.267,4.267,0,0,1,16.022,19.767Z" transform="translate(7.398 16.5)"/><line class="a" y1="8.533" transform="translate(14.887 40.531)"/><path class="a" d="M13.489,15.5a8.533,8.533,0,1,1,0,17.067Z" transform="translate(14.198 16.5)"/><path class="a" d="M19.489,32.567V18.7a3.2,3.2,0,0,1,3.2-3.2h5.333" transform="translate(20.998 16.5)"/><line class="a" x2="5.333" transform="translate(40.487 40.531)"/></g></svg>