<svg xmlns="http://www.w3.org/2000/svg" width="39.303" height="47.156" viewBox="0 0 39.303 47.156"><defs><style>.a{fill:none;stroke:#000;stroke-linecap:round;stroke-linejoin:round;stroke-width:2px;}</style></defs><g transform="translate(-1.5 0.5)"><path class="a" d="M39.228,8.353A1.963,1.963,0,0,1,39.8,9.741V43.693a1.963,1.963,0,0,1-1.963,1.963H4.463A1.963,1.963,0,0,1,2.5,43.693V2.463A1.963,1.963,0,0,1,4.463.5h26.1a1.963,1.963,0,0,1,1.388.571Z" transform="translate(0)"/><line class="a" x2="7" transform="translate(26.5 10.5)"/><line class="a" x2="25" transform="translate(8.5 27.5)"/><line class="a" x2="25" transform="translate(8.5 33.5)"/><line class="a" x2="25" transform="translate(8.5 39.5)"/><line class="a" x2="7" transform="translate(26.5 16.5)"/><line class="a" x2="7" transform="translate(26.5 22.5)"/><path class="a" d="M5.5,6.462V4.5H17.28V6.462" transform="translate(2.89 3.852)"/><line class="a" y2="14" transform="translate(14.5 8.5)"/><line class="a" x2="8" transform="translate(10.5 22.5)"/></g></svg>