<svg xmlns="http://www.w3.org/2000/svg" width="50.002" height="49.982" viewBox="0 0 50.002 49.982"><defs><style>.a{fill:none;stroke:#000;stroke-linecap:round;stroke-linejoin:round;stroke-width:2px;}</style></defs><g transform="translate(0.729 0.5)"><path class="a" d="M15.519,4.5A.519.519,0,1,1,15,5.019a.519.519,0,0,1,.519-.519" transform="translate(15.608 4.306)"/><path class="a" d="M20.019,4.5a.519.519,0,1,1-.519.519.519.519,0,0,1,.519-.519" transform="translate(20.452 4.306)"/><path class="a" d="M23.806,8A4.153,4.153,0,0,1,15.5,8Z" transform="translate(16.146 8.074)"/><path class="a" d="M24.9.5A12.581,12.581,0,0,0,14.2,19.726l-3.7,7.768,7.768-3.7A12.592,12.592,0,1,0,24.9.5Z" transform="translate(10.764 0)"/><path class="a" d="M17.343,21.785c-1.323-1.424-2.594-2.878-3.8-4.346l1.47-1.468a4.153,4.153,0,0,0,0-5.872l-4.408-4.4a4.153,4.153,0,0,0-5.872,0L2.322,8.111a6.217,6.217,0,0,0-.785,7.833A96.468,96.468,0,0,0,28.532,42.938a6.229,6.229,0,0,0,7.837-.785l2.417-2.415a4.153,4.153,0,0,0,0-5.872l-4.4-4.408a4.153,4.153,0,0,0-5.874,0l-1.468,1.468c-1.466-1.2-2.922-2.473-4.348-3.8" transform="translate(0 4.283)"/></g></svg>