<svg xmlns="http://www.w3.org/2000/svg" width="61.484" height="43.361" viewBox="0 0 61.484 43.361"><defs><style>.a{fill:none;stroke:#000;stroke-linecap:round;stroke-linejoin:round;stroke-width:2px;}</style></defs><g transform="translate(0.286 -3.155)"><path class="a" d="M52.877,5.162,16.861,20.829,9.5,17.139a1.318,1.318,0,0,0-1.109-.034L1.519,20.062A1.318,1.318,0,0,0,1.108,22.2l9.866,9.869a1.318,1.318,0,0,0,1.423.29l18.958-7.582L24.627,42.722a1.318,1.318,0,0,0,1.821,1.642l7.157-3.576a1.318,1.318,0,0,0,.588-.588L44.539,19.511,56.924,14.9a5.27,5.27,0,1,0-4.032-9.738Z" transform="translate(0 0.976)"/><path class="a" d="M31.627,11.29,14.587,4.262a1.318,1.318,0,0,0-1.007,0l-6.3,2.609a1.318,1.318,0,0,0,0,2.435l14.81,6.127" transform="translate(9.402 0)"/></g></svg>