<svg xmlns="http://www.w3.org/2000/svg" width="37.699" height="50.299" viewBox="0 0 37.699 50.299"><defs><style>.a{fill:none;stroke:#000;stroke-linecap:round;stroke-linejoin:round;stroke-width:2px;}</style></defs><g transform="translate(-2.5 0.5)"><path class="a" d="M5.5,2.5H28.6a2.1,2.1,0,0,1,2.1,2.1V6.7" transform="translate(2.2 2.2)"/><path class="a" d="M37.1,8.9V2.6A2.1,2.1,0,0,0,35,.5H7.7a4.2,4.2,0,1,0,0,8.4H37.1A2.1,2.1,0,0,1,39.2,11V46.7a2.1,2.1,0,0,1-2.1,2.1H7.7a4.2,4.2,0,0,1-4.2-4.2V4.7" transform="translate(0 0)"/><path class="a" d="M7.5,10.5l5.25,5.25L7.5,21" transform="translate(4.4 11.004)"/><line class="a" x2="9.188" transform="translate(21.597 30.783)"/></g></svg>