<svg xmlns="http://www.w3.org/2000/svg" width="55.445" height="55.445" viewBox="0 0 55.445 55.445"><defs><style>.a{fill:#323234;}</style></defs><path class="a" d="M2.31,18.482H16.172a2.31,2.31,0,0,0,2.31-2.31V2.31A2.31,2.31,0,0,0,16.172,0H2.31A2.31,2.31,0,0,0,0,2.31V16.172a2.31,2.31,0,0,0,2.31,2.31ZM4.62,5.2A.578.578,0,0,1,5.2,4.62h8.086a.578.578,0,0,1,.578.578v8.086a.578.578,0,0,1-.578.578H5.2a.578.578,0,0,1-.578-.578Z"/><path class="a" d="M16.172,16H2.31A2.31,2.31,0,0,0,0,18.31V32.172a2.31,2.31,0,0,0,2.31,2.31H16.172a2.31,2.31,0,0,0,2.31-2.31V18.31A2.31,2.31,0,0,0,16.172,16Zm-2.31,13.284a.578.578,0,0,1-.578.578H5.2a.578.578,0,0,1-.578-.578V21.2A.578.578,0,0,1,5.2,20.62h8.086a.578.578,0,0,1,.578.578Z" transform="translate(0 20.964)"/><path class="a" d="M32.172,0H18.31A2.31,2.31,0,0,0,16,2.31V16.172a2.31,2.31,0,0,0,2.31,2.31H32.172a2.31,2.31,0,0,0,2.31-2.31V2.31A2.31,2.31,0,0,0,32.172,0Zm-2.31,13.284a.578.578,0,0,1-.578.578H21.2a.578.578,0,0,1-.578-.578V5.2A.578.578,0,0,1,21.2,4.62h8.086a.578.578,0,0,1,.578.578Z" transform="translate(20.964)"/><path class="a" d="M10.983,9.491h2.31a1.733,1.733,0,1,0,0-3.465.578.578,0,0,1-.578-.578V1.983a1.733,1.733,0,1,0-3.465,0V7.758A1.733,1.733,0,0,0,10.983,9.491Z" transform="translate(12.12 0.328)"/><path class="a" d="M13.983,3.715a.578.578,0,0,1,.578.578V17a1.733,1.733,0,0,0,3.465,0V1.983A1.733,1.733,0,0,0,16.293.25h-2.31a1.733,1.733,0,1,0,0,3.465Z" transform="translate(16.05 0.328)"/><path class="a" d="M5.75,16.724a1.733,1.733,0,0,0,1.733,1.733h8.086A1.733,1.733,0,0,0,17.3,16.724V7.483a1.733,1.733,0,0,0-3.465,0v6.931a.578.578,0,0,1-.578.578H7.483A1.733,1.733,0,0,0,5.75,16.724Z" transform="translate(7.534 7.534)"/><path class="a" d="M6.6,9.75A1.733,1.733,0,0,0,4.87,11.483v5.776a.578.578,0,0,1-.578.578H1.983a1.733,1.733,0,0,0,0,3.465H32.016a1.733,1.733,0,0,0,1.733-1.733V12.638a1.733,1.733,0,1,0-3.465,0v4.62a.578.578,0,0,1-.578.578H8.913a.578.578,0,0,1-.578-.578V11.483A1.733,1.733,0,0,0,6.6,9.75Z" transform="translate(0.328 12.775)"/><path class="a" d="M19.646,17.983a1.733,1.733,0,0,0-1.733-1.733H10.983A1.733,1.733,0,0,0,9.25,17.983v9.241a1.733,1.733,0,1,0,3.465,0V20.293a.578.578,0,0,1,.578-.578h4.62A1.733,1.733,0,0,0,19.646,17.983Z" transform="translate(12.12 21.291)"/><path class="a" d="M36.43,26.181H16.793a.578.578,0,0,1-.578-.578v-4.62a1.733,1.733,0,0,0-3.465,0v6.931a1.733,1.733,0,0,0,1.733,1.733H36.43a1.733,1.733,0,1,0,0-3.465Z" transform="translate(16.705 25.222)"/><path class="a" d="M17.483,26.146h6.931a1.733,1.733,0,0,0,1.733-1.733V17.483a1.733,1.733,0,0,0-1.733-1.733H17.483a1.733,1.733,0,0,0-1.733,1.733v6.931A1.733,1.733,0,0,0,17.483,26.146Zm1.733-6.353a.578.578,0,0,1,.578-.578H22.1a.578.578,0,0,1,.578.578V22.1a.578.578,0,0,1-.578.578h-2.31a.578.578,0,0,1-.578-.578Z" transform="translate(20.636 20.636)"/><path class="a" d="M23.483,12.75a1.733,1.733,0,0,0-1.733,1.733V29.5a1.733,1.733,0,0,0,3.465,0V14.483A1.733,1.733,0,0,0,23.483,12.75Z" transform="translate(28.497 16.705)"/><path class="a" d="M32.422,10.983A1.733,1.733,0,0,0,30.689,9.25H17.983a1.733,1.733,0,0,0-1.733,1.733v6.931a1.733,1.733,0,0,0,3.465,0v-4.62a.578.578,0,0,1,.578-.578h10.4A1.733,1.733,0,0,0,32.422,10.983Z" transform="translate(21.291 12.12)"/></svg>