<svg xmlns="http://www.w3.org/2000/svg" width="30" height="31.965" viewBox="0 0 30 31.965"><defs><style>.a{fill:#999;}</style></defs><path class="a" d="M24.375,1.965a15.19,15.19,0,0,0-1.615.086,1.28,1.28,0,0,0,.178-.942A1.59,1.59,0,0,0,21.255,0a2.6,2.6,0,0,0-.536.057,2.311,2.311,0,0,0-1.24.679,1.337,1.337,0,0,0-.359,1.185,1.28,1.28,0,0,0,.558.8,15.125,15.125,0,0,0-7.227,5.146,14.862,14.862,0,0,0-3.078,9.1,15,15,0,1,0,15-15Zm-3.119-.95c.391,0,.657.155.689.3a.369.369,0,0,1-.126.3,1.24,1.24,0,0,0-1.474.31.366.366,0,0,1-.23-.217.408.408,0,0,1,.164-.337,1.381,1.381,0,0,1,.652-.322A1.571,1.571,0,0,1,21.255,1.015Zm6.371,26.373-1.2-1.94a.262.262,0,0,0-.483.1l-.3,2.255a11.107,11.107,0,0,1-1.27.073,10.838,10.838,0,0,1-7.545-3.028.26.26,0,0,0,.062-.035l5.919-4.5a3.735,3.735,0,0,0,1.256.336l1.5,3.152a.262.262,0,0,0,.5-.106l.09-3.489a3.637,3.637,0,0,0,.889-.684l1.773.629a.262.262,0,0,0,.278-.427l-1.3-1.364a3.636,3.636,0,0,0,.263-1.091l3.15-1.5a.262.262,0,0,0-.106-.5l-3.221-.083,4.338-5.709a.266.266,0,0,0,.035-.062A10.92,10.92,0,0,1,34.8,13.714l-1.94,1.2a.262.262,0,0,0,.1.483l2.255.3a11.077,11.077,0,0,1,.073,1.27,10.929,10.929,0,0,1-7.663,10.423ZM16.01,18.743a.262.262,0,0,0-.221-.205l-2.255-.3a11.1,11.1,0,0,1-.073-1.269A10.931,10.931,0,0,1,21.123,6.541l1.2,1.94a.262.262,0,0,0,.483-.1l.3-2.255a11.073,11.073,0,0,1,1.27-.073A10.838,10.838,0,0,1,31.92,9.079a.268.268,0,0,0-.062.035l-5.919,4.5a3.733,3.733,0,0,0-1.256-.336l-1.5-3.152a.262.262,0,0,0-.5.106l-.09,3.489a3.639,3.639,0,0,0-.889.683l-1.773-.629a.262.262,0,0,0-.278.427l1.3,1.364a3.649,3.649,0,0,0-.262,1.091l-3.151,1.5a.262.262,0,0,0,.106.5l3.222.083-4.338,5.709a.261.261,0,0,0-.035.062,10.916,10.916,0,0,1-2.538-4.294l1.94-1.2A.262.262,0,0,0,16.01,18.743Zm9.767.512a2.694,2.694,0,0,1-1.731.376l-.036,0q-.117-.016-.234-.043l1.8-1.368a.256.256,0,0,0,.05-.05l1.367-1.8.009.04A2.69,2.69,0,0,1,25.777,19.256Zm-1.961-4.917a2.71,2.71,0,0,1,.562-.059,2.673,2.673,0,0,1,.331.021l.03,0q.118.016.235.043l-1.8,1.368a.261.261,0,0,0-.05.05l-1.367,1.8-.009-.04A2.689,2.689,0,0,1,23.816,14.338Z" transform="translate(-9.375)"/></svg>