<svg xmlns="http://www.w3.org/2000/svg" width="45" height="45.392" viewBox="0 0 45 45.392"><defs><style>.a{fill:none;stroke:#2c2c2e;stroke-linecap:round;stroke-linejoin:round;stroke-width:2px;}</style></defs><g transform="translate(0.5 0.013)"><circle class="a" cx="2.839" cy="2.839" r="2.839" transform="translate(9.018 15.594)"/><circle class="a" cx="2.5" cy="2.5" r="2.5" transform="translate(19.5 9.987)"/><line class="a" y2="4" transform="translate(11.5 20.987)"/><line class="a" y2="3.786" transform="translate(22.268 6.13)"/><line class="a" y1="8" transform="translate(11.5 6.987)"/><circle class="a" cx="2.839" cy="2.839" r="2.839" transform="translate(29.84 15.594)"/><line class="a" y2="4" transform="translate(32.5 20.987)"/><line class="a" y1="8" transform="translate(32.5 6.987)"/><line class="a" y1="9.464" transform="translate(22.268 15.594)"/><path class="a" d="M9.138,27.072A14.17,14.17,0,0,0,11.716,19.5" transform="translate(7.713 16.914)"/><path class="a" d="M16.078,27.072A14.17,14.17,0,0,1,13.5,19.5" transform="translate(11.607 16.914)"/><line class="a" x2="17" transform="translate(13.5 43.987)"/><line class="a" x2="43" transform="translate(0.5 30.987)"/><rect class="a" width="43" height="35" rx="1" transform="translate(0.5 0.987)"/></g></svg>