<svg xmlns="http://www.w3.org/2000/svg" width="64.76" height="53.677" viewBox="0 0 64.76 53.677"><defs><style>.a{fill:none;stroke:#000;stroke-linecap:round;stroke-linejoin:round;stroke-width:2px;}</style></defs><g transform="translate(19.205 -2.401) rotate(22)"><path class="a" d="M0,29.946S24.594,5.278,26.185,3.689C27.949,1.923,33.64.593,36.471.022a1.124,1.124,0,0,1,1.324,1.324c-.571,2.831-1.9,8.521-3.667,10.287L7.91,37.849Z" transform="translate(9.902 0)"/><line class="a" x2="7.923" y2="7.93" transform="translate(13.07 26.742)"/><path class="a" d="M11.551,0a48.921,48.921,0,0,1-.793,10.336A15.325,15.325,0,0,1,7.576,15.1L1.92,20.751a1.124,1.124,0,0,1-1.912-.926l1.1-9.384" transform="translate(18.179 25.935)"/><path class="a" d="M21.063.034A49.118,49.118,0,0,0,10.671.755,15.257,15.257,0,0,0,5.97,4L.33,9.64a1.124,1.124,0,0,0,.933,1.91L10.7,10.395" transform="translate(0.721 17.956)"/><path class="a" d="M13.046,4.075c1.591,1.589.928,3.84-.793,5.564-1.611,1.609-7.719,3.445-10.844,4.3A1.124,1.124,0,0,1,.035,12.576C.885,9.441,2.7,3.316,4.3,1.7,6.051-.041,8.28-.679,9.868.909" transform="translate(0 33.773)"/></g></svg>