<svg xmlns="http://www.w3.org/2000/svg" width="43.745" height="43.745" viewBox="0 0 43.745 43.745"><defs><style>.a{fill:none;stroke:#000;stroke-linecap:round;stroke-linejoin:round;stroke-width:2px;}</style></defs><g transform="translate(0.5 0.5)"><path class="a" d="M29.945,17.368,17.578,29.735,11.5,30.95l1.216-6.078L25.083,12.505a3.426,3.426,0,0,1,4.85,0l.013.013a3.426,3.426,0,0,1,0,4.85Z" transform="translate(11.295 11.294)"/><path class="a" d="M15.347,42.245H2.356A1.836,1.836,0,0,1,.5,40.43V2.315A1.836,1.836,0,0,1,2.356.5h24.67a1.877,1.877,0,0,1,1.312.532l6.88,6.728a1.8,1.8,0,0,1,.544,1.283v5.069" transform="translate(0 0)"/><path class="a" d="M8.341,8.274A1.238,1.238,0,0,0,6.5,9.357v9.3a1.238,1.238,0,0,0,1.841,1.083L16.4,14.778a1.24,1.24,0,0,0,0-2.167Z" transform="translate(5.349 6.891)"/></g></svg>