<svg xmlns="http://www.w3.org/2000/svg" width="34.478" height="43.977" viewBox="0 0 34.478 43.977"><defs><style>.a{fill:none;stroke:#000;stroke-linecap:round;stroke-linejoin:round;stroke-width:2px;}</style></defs><g transform="translate(-2 0.384)"><ellipse class="a" cx="16.239" cy="16.747" rx="16.239" ry="16.747" transform="translate(3 0.616)"/><path class="a" d="M9.5,17.231A10.835,10.835,0,0,0,5,25.838a1.771,1.771,0,0,0,1.882,1.634H29.464a1.771,1.771,0,0,0,1.882-1.634,10.835,10.835,0,0,0-4.5-8.607" transform="translate(1.267 15.121)"/><path class="a" d="M7.966,1.454A8.157,8.157,0,0,0,14.556,4.8a8.156,8.156,0,0,0,6.59-3.342" transform="translate(4.929 0.632)"/><circle class="a" cx="2.45" cy="2.45" r="2.45" transform="translate(17.019 14.457)"/><circle class="a" cx="6.106" cy="6.106" r="6.106" transform="translate(13.133 10.504)"/></g></svg>