<svg xmlns="http://www.w3.org/2000/svg" width="55.445" height="55.446" viewBox="0 0 55.445 55.446"><defs><style>.a{fill:#323234;}</style></defs><path class="a" d="M140,4.686V25.9a.454.454,0,0,0,.454.454h29.079a.454.454,0,0,0,.454-.454V.455a.454.454,0,0,0-.52-.45L140.388,4.236A.455.455,0,0,0,140,4.686Z" transform="translate(-114.549 0)"/><path class="a" d="M22.345,181.805a.454.454,0,0,0,.454-.454v-20.9a.454.454,0,0,0-.454-.454H.546a.454.454,0,0,0-.454.454v17.909a.455.455,0,0,0,.393.45l21.8,2.988A.506.506,0,0,0,22.345,181.805Z" transform="translate(-0.075 -130.914)"/><path class="a" d="M.474,47.78H22.269a.454.454,0,0,0,.454-.454V26.635a.454.454,0,0,0-.516-.45L.393,29.147A.455.455,0,0,0,0,29.6L.02,47.326A.455.455,0,0,0,.474,47.78Z" transform="translate(0 -21.421)"/><path class="a" d="M169.533,186.359a.454.454,0,0,0,.454-.454l.007-25.45a.454.454,0,0,0-.454-.454H140.453a.454.454,0,0,0-.454.454v21.359a.455.455,0,0,0,.391.45l29.079,4.091A.466.466,0,0,0,169.533,186.359Z" transform="translate(-114.549 -130.914)"/></svg>