<svg xmlns="http://www.w3.org/2000/svg" width="53.026" height="53.026" viewBox="0 0 53.026 53.026"><defs><style>.a{fill:#fff;}</style></defs><path class="a" d="M140,4.481V24.775a.435.435,0,0,0,.435.435h27.81a.435.435,0,0,0,.435-.435V.435a.434.434,0,0,0-.5-.43l-27.81,4.047A.435.435,0,0,0,140,4.481Z" transform="translate(-115.659 0)"/><path class="a" d="M21.374,180.854a.434.434,0,0,0,.435-.435V160.435a.435.435,0,0,0-.435-.435H.527a.435.435,0,0,0-.435.435v17.128a.435.435,0,0,0,.376.431l20.846,2.857A.475.475,0,0,0,21.374,180.854Z" transform="translate(-0.076 -132.183)"/><path class="a" d="M.454,46.838H21.3a.435.435,0,0,0,.435-.435V26.615a.434.434,0,0,0-.493-.431L.376,29.018A.435.435,0,0,0,0,29.449L.019,46.4A.435.435,0,0,0,.454,46.838Z" transform="translate(0 -21.629)"/><path class="a" d="M168.244,185.209a.435.435,0,0,0,.435-.435l.007-24.34a.435.435,0,0,0-.435-.435H140.434a.435.435,0,0,0-.435.435v20.428a.435.435,0,0,0,.374.431l27.81,3.913A.447.447,0,0,0,168.244,185.209Z" transform="translate(-115.659 -132.183)"/></svg>