<svg xmlns="http://www.w3.org/2000/svg" width="38.427" height="38.427" viewBox="0 0 38.427 38.427"><defs><style>.a{fill:none;stroke:#000;stroke-linecap:round;stroke-linejoin:round;stroke-width:1.5px;}</style></defs><g transform="translate(0.25 0.251)"><path class="a" d="M.5,5.381V2.092A1.592,1.592,0,0,1,2.092.5H5.383" transform="translate(0 0.001)"/><path class="a" d="M5.383,25.316H2.092A1.592,1.592,0,0,1,.5,23.724V20.433" transform="translate(0 11.801)"/><line class="a" y2="4.883" transform="translate(0.5 11.484)"/><line class="a" y2="4.881" transform="translate(0.5 21.249)"/><line class="a" y2="4.883" transform="translate(37.116 11.484)"/><line class="a" x2="4.883" transform="translate(11.485 0.499)"/><line class="a" x2="4.883" transform="translate(21.248 0.499)"/><path class="a" d="M20.433.5h3.291a1.592,1.592,0,0,1,1.592,1.592V5.381" transform="translate(11.8 0.001)"/><line class="a" x1="4.883" transform="translate(11.485 37.115)"/><circle class="a" cx="9.764" cy="9.764" r="9.764" transform="translate(12.706 12.705)"/><line class="a" x2="6.368" transform="translate(19.286 22.469)"/><line class="a" y2="6.368" transform="translate(22.47 19.285)"/><line class="a" x2="7.742" y2="7.742" transform="translate(29.374 29.373)"/></g></svg>